<?xml version="1.0" encoding="UTF-8"?><svg id="a" xmlns="http://www.w3.org/2000/svg" viewBox="0 0 300 300"><defs><style>.b{stroke-width:1.7px;}.b,.c,.d{fill:#fed916;}.b,.d{stroke:#fed916;}.e{fill:#7d4698;}.f,.g{fill:#dcf4ef;}.h{fill:#60d2c0;}.i{stroke-width:4.2px;}.i,.j,.k{fill:none;stroke:#240a3b;stroke-linecap:round;stroke-miterlimit:10;}.j{stroke-width:4px;}.k{stroke-width:4px;}.d{stroke-width:2.5px;}.g{fill-rule:evenodd;}</style></defs><path class="c" d="M107.1,160.2c68,1,68-105.8,0-104.8-68-1-68,105.8,0,104.8Z"/><path class="c" d="M150.2,135.2c-.7,1,0,.6,0,1-.7,1.3-.6,.4-1,.8-.3,.7-.7,1.4-1.1,2.1,0,0-.2,.1-.1,0-.4,.9-1.8,2.3-2.3,3.3h-.2c.2,0,.4,0,.4,.1-.4,.4-.6,.9-.9,.9,.3-.2,.2-.3,.3-.5l-.4,.5c-.6,.2,.5-.6,.4-.8-.7,.9-1.4,1.8-2.2,2.6-.3,0,1.4-1.6,.4-.9l1-.9c-1,.4,.6-.6-.4-.2-1.3,1.2-1.2,1.6-2.6,2.7-.2,.4,.3,0,0,.4-1.8,1.8-2,.8-3.2,2.2-.1,.3-.3,.6-.6,.9-.2,.2-.5,.4-.9,.5l.2-.5c-1.4,.9-.6,.9-2.2,1.8,.2-.3,1.1-.8,.8-.7-1.1,.5-.6,.6-1.3,1.1h-.3c-.8,.3-1.6,.8-2.5,1.5-.8,.6-1.7,1.1-2.6,1.6,0-.1,.4-.3-.1-.2-1.1,.6-2.4,1.1-3.7,1.6-1.3,.5-2.6,.7-3.8,1l-.8,.5c-.2,0-.4,0-.2,0-1,.1,0,.2-.4,.3-.4,.2-.7,0-.4-.1-.8,.3-2,.6-3.2,.9-1.1,.3-2.2,.4-3.3,.4h.3c-1.4-.1-1.6,.5-2.8,.5h-4.4c-.7,0-1.5,0-2.2-.1-.6,0-1.3-.2-1.9-.3-.5,.3-3-.4-3.2,0-1.1-.5-2.3-.8-3.5-1.2-.6-.1-1,0-1.8-.1v-.2h-1.1l-.5-.5h-.7c.3,0,.6,.1,.5,.2-.6-.1-1.2-.3-1.8-.6-.3-.1-.6-.3-.9-.6l-2.7-.9c0,0,.5,0,.9,.2-1.5-.3-.1-.3-1.5-.7,.1,.1-.1,.1-.2,.1-1-.6-1.9-1.1-3-1.6h.3c-2-1-3.9-2.2-5.7-3.4,.7,.5,.3,.7-.3,.3v-.4c-.5-.1,.5,.5-.3,.1-.9-.3-.3-.6,.2-.4l-.9-.6c0-.1,.2,0,.3,0-.4-.1-1.2-1.4-1.9-1.6h0c-.7-.7-1.4-1.3-2.1-1.9l-1.8-1.9c-.2,.1-.7-.4-1.2-.7-.8-1.1-1.7-2.4-2.8-3.7-.8-.9-.4-.2-.8-.5,.1-.2-.9-1.6-.2-.9l-1.4-1.9-.7-.9-.9-1.3c0,.3,.2,.6,0,.5-.3-.4-.4-1-.3-1h0c-.9-1.2-1.5-2.6-2-4.1-.4-1.3-1-2.6-1.6-3.9h0l-.7-2c-.3-1,.4,.6,.2-.2-.3-.5-.5-1.1-.7-1.6-.1-.5-.2-1-.3-1.4-.1-1-.4-1.9-.7-2.8,0-1.2,0-2.5-.2-3.7,0-.7-.2-1.6-.3-2.2,0-.6,0-1.3,.1-1.9h-.1c-.1-.4,0-.6,.1-1-.1,0-.1,.6-.2,.3-.1-2.5,0-4.9,.4-7.4,.2-1.2,.5-2.4,.8-3.6l.4-1.8c.2-.6,.4-1.2,.6-1.8,.5-1.7-.4-1.2,.6-3.2v.7c.5-1.8,1.2-3.5,1.9-5.2,.9-1.6,1.7-3.2,2.5-4.8,0,.2,0,.4-.2,.6,.6-.7,1.1-1.5,1.4-2.4,.3-.4,.2,0,.4-.3,.5-.5,.8-1.7,1.2-1.9,0,0,0,.2-.2,.3,.2-.4,1.4-1.8,1-1.6,.9-1,1.5-2.1,2.3-2.8,.3-.7,1.6-1.6,1.6-1.9,.2,.3,1.8-1.5,2.4-2.1-.1,.3,.6-.4,.5,0,.7-.6,1.4-1.2,1.1-1.3,1.6-.9,2.6-2.4,3.8-2.5l1.6-1.3,1.7-1.1c1.1-.7,2.2-1.4,3.4-2,0,.2-.6,.4-1.2,.8s-1.2,.7-1,.8l1.4-.9,1.3-.7c.9-.5,1.9-1,2.8-1.3,.6-.2-.3,.3-.4,.4,1.1-.5,2.2-.9,3.3-1.2,1.1-.3,2.1-.8,3.2-1.1,0,0-.2,.1-.4,.2,.4,0,1-.1,.9-.3h-.4c-.7,0,1.6-.7,1.6-.8-.6,.6,2.1-.4,1.1,.5,.3,0,.6-.2,.5-.3,.4,0,.6,0,.2,.2,.7-.3,1.5-.5,2.3-.6,0,0-.3,.1-.4,.3,.8-.3,1.7-.5,2.5-.5,0,0,0,0-.3,.1,1.9-.4,3.7-.5,5.6-.5-.7,.4,.8,0,.9,.4,.4,0,.8,0,1.2,0l-.5-.2c1,0,1.9,0,2.9,.1h0c1.1,0,0-.5,1.3-.3,.5,0,1.1,.2,1.6,.4,.6,0,1.2,0,1.8,.2,.2,.1-.2,.3,0,.4,.5-.1,2.4,.4,3.1,.3-.2,0-.3,.1-.2,.2h.5c.5,.2,.5,.3,.4,.4,1.4,.4-.4-.5,1.3,.2h-.4c1.6,.4,3.2,.9,4.8,1.6,.3,.5-1.3-.5-.9,0,1.1,.4,2.2,.8,3.3,1.2,1.1,.4,2.2,.9,3.2,1.5l-.4-.2c.5-.2,1.4,.9,2.4,1.3-.2-.1-.4,0-.3,0,1.2,.9,2.7,1.6,4.7,2.8h-.3c.7,.5,1.8,1.5,2.5,2.1,.3,0,.7,.5,.6,.1,.5,.6,1,1.1,1.5,1.6,.5,.5,1,1,1.6,1.4,1.1,.8,2,1.9,2.7,3-.2-.3-.6-.5-.4-.3l1.6,1.7c0-.3-.1-.3-.3-.7,.4,.3,.8,.6,1.1,1-.8-.7-.2,.2,0,.6,0,0,.1,0,.2,0,.4,1.2,.4,0,1.2,1.4h-.1c.4,.4,.8,.9,1.1,1.4,0,.4-.4-.5-.6-.4,.5,.7,1.4,1.3,1.6,2.1-.2-.4-.5-.7-.8-1.1,.2,.6,.4,1.1,.7,1.6l.7,1.4v-.4c.9,.7,1.2,1.9,2.1,3.2-.9-1.2-.3-.1-.5-.1,0,.4,.3,1,.1,.8,.5,.6,.4,1.2,1,2,0,0,.3,.7,0,.6,.4,.8,0-.3,.2-.2,.8,1.2,.8,3.3,1.8,5.2,.6,1.7,.9,2,1.4,3.6,0,.6-.4-.4-.4-.4,0,.8,.3,1.6,.5,2.4,0-.2-.1,0-.2,.3,0,.7,.3,.4,.3,1.3-.2-.2-.3-.4-.4-.7,.2,.8,.4,1.6,.6,2.4-.1,.2-.3-.5-.4-.8,.1,.9,.3,1.8,.6,2.7v-.6c0,.3-.2,.2-.2,0-.3-.8,0-1.2,0-1.2v.6c.5-.7-.2-2.4-.3-3.6l.4,.5-.4-1.2c0-.3,.2-.5,.3,.1,0-.9-.3-.7-.2-1.6,0,0,0,0,0,0l-.3-.8c.1,.2,.2-.2,.3,.4-.1-1.6-.8-2.4-.7-3h0c-.7-1.9-.3,0-1-1.5l.3-1.2h-.3c0-.3-.2-.8,0-.7-.4-.7,0,.2-.4-.2-.1-.6-.3-1.2-.5-1.8-.3-.6-.4-1.1-.3-1.2-.3-.3,.3,1-.3,0,.3-.5-.6-1.2-.8-2.1,.3,.2,.6,1.1,.4,0-.5-.4-.7-1.8-1.2-2.5-.3,.1-1-1.5-1.7-2.7-.6-1.3-1.3-2.5-2.1-3.7-.4,0-1-1.2-1.7-1.9,.2,0,.3,0,.7,.4-.2-.2-.4-.5-.6-.7-.3-.2-.6-.4-.8-.7h.3c-.8-.9-1.7-1.7-2.7-2.9-.2,0,.5,1.2-.8,.2,0-.1,.1-.3,.5,0-.2-.1-.4-.3-.6-.5l.6,.3c-.4-.5-.4-.1-.8-.6,.1,0-.2-.4,0-.4,.2,0,.3,.4,.5,.5-.4-.4-.7-.8-1-1.3,0,.1-.1,.2-.5-.2-.9-.8-.2-.4-.6-1-.3-.1-.8-.7-1-.5-.2-.1-.3-.3-.3-.5-.6-.3-2.3-1.8-1.9-1.2h0c-1.6-1.1-3.4-2.4-5.1-3.5-1-.6-2.1-1.1-3.2-1.6-.3-.2-.7-.5-.5-.5-.9-.4-.9-.4-2.1-1,.9,.2-.3-.2,.9,.3-.8-.5-1.7-.8-2.6-1,.5,0-.7-.6-1.3-.7l.7,.5c-.6-.2-1.1-.5-1.6-.7h.4c-1-.6-2.1-.9-3.3-1.1-1-.2-1.9-.4-2.8-.8-.7,0,1.3,.4,.7,.5-1.1-.3-2.2-.8-2.5-.9-1.5-.4-1.5,0-3.1-.3,.2,.1,.4,.4-.9,.4-1.2,0-1.3-.5-.6-.5,.3,0,.4,0,.4,0,.4,0,.9,0,.4-.1h-.1c-.6,0-2.1-.2-1.8-.3-.9,0-.4,.1,.3,.2-1.2-.2-2.5-.3-3.8-.3,.2,0,.5,.2,.2,.2-2.2,0-1,.2-2.5,.3-.9-.1,.3-.4-1.2-.2-.9,0-.2-.2,.2-.3-1.4,.1-2.6,.1-3.4,.1l.7-.2c-.4,0-.8,.1-1.1,.2h-.4c-.4,.3,.4,.4-.5,.7-.6,0-1.7,.3-1.9,0,1.8-.2-.2-.2,1.3-.5-.4,0-.7,.1-1.1,.1h.2c-1.7,0-.7,.4-2.5,.7,.2-.2-.5-.2-.7,0,.7-.1,.4,.2-.2,.4-.6,0-1.2,.3-1.8,.5h.7c-.5,.1-1,.3-1.5,.5,0,0,.7-.3,.4-.2-.7,.5-1.9,.4-3.1,.9-.6,0-.1-.2-.6-.1-.9,.3-1.8,.6-2.7,1,.5,0,.5,0-.4,.5l2.1-1.1-1.3,.9c.6-.3,1.2-.6,1.8-.8-.6,.4-.6,.3-.2,.3-1,.1-1.7,.9-2.8,1.2l-.2-.4c-.8,.2-1.5,.6-2.2,1-.8,.5-1.6,1-2.4,1.4l.7-.3c-.2,.3-1.2,.7-1.8,1.1,0-.2-.4,0-.8,0,0,0-1.3,.9-1.3,1.3l-.9,.4c-1.6,1-1.4,1.5-2.8,2.5,.3-.5-.4,0,.4-.9-.4,.4-.9,.7-.8,.8-.3,.1-1.1,1.2-1.6,1.4-.1,.3-.3,.6-.6,.8,0,0-.7,.7-.1,.5-.9,.6-1.7,1.3-2.4,2.1l-1.2,1.2c-.3,.4-.6,.7-1,1l-2.3,3.1v-.2c-1,1.2-.2,1.1-1.3,2.4-.7,.6,.4-.9,0-.4-.6,0-1.2,1.8-2,2.7v-.3c-.5,.7-.8,2.1-1.5,3.4-.3,1-.9,2.8-1.4,4.2,0-.5,.1-.6-.1-.5-.2,.6,.4,0,0,1.1-.2,.4-.7,1.2-.9,1.2,.1-.4,.3-.7,.4-1.1-.5,.5-.6,1.5-.8,2.1h0c-.5,1.7-.2,1.8-.8,3.7v-.2c.1,1.1-.2,.8-.2,2l-.4,.3c0,.7-.2,2.5-.3,3.8-.1-1.1-.1-2.1,0-3.2-.2,.9-.3,1.8-.4,2.8,0-.3,0-.6,.1-.9,0,1.1,0,2.3,0,3.4-.6-.3-.5,3.7-.9,4.7,0,1.3,.1,2.5,0,3.8,.1,1.3,.2,2.6,.4,4.1,.4-1.1,.1,.8,.6,.6,0,.3,.1,.7,.2,1v2.1c.1,.5,0-.6-.2-.5,.3,1.5,0,.7,0,1.6,.1-.2,.4,.4,.5,1.3v-1.2c.7,2,0,1.9,.9,3.8l-.4-.6c.2,.5,.5,1.5,.9,2.4,.3,.8,.7,1.6,1.2,2.2,0,.2,0,.5-.2,0,.5,1.3,1.1,2.5,1.8,3.7,.7,1,1.3,2.1,1.8,3.2h-.2c.3,.3,.6,.7,.8,1.1,0,0-.2,0,0,0,.5,.5,.9,1,1.2,1.5l-.4-.4c.6,.9,1.2,1.7,1.9,2.5,.7,.6,1.3,1.2,2,2-.3,.2,.9,1.8,1.6,2.6,1,1.1,2,1.9,2.9,2.7,.9,.8,2,1.4,3.1,2.2,.4,.4,.8,.8,1.2,1.2,.5,.4,1.1,.8,1.8,1.3,1.3,.9,2.7,1.9,3.9,2.5-.3-.3,.2-.2,.6,0,.4,.2,1.6,.6,1.4,.9h-.2c.7,.6,1.5,1.1,2.4,1.3l.3-.3c1.3,.8,2.8,1.5,4.3,1.9,1.2,.2,2.5,.6,3.6,1.2,.7,.1,1.4,.2,2.1,.3v.2c1.5,.4,3.1,.7,4.7,.9h-.5c1.2,.3,1.6-.4,2.8-.3l.3,.4c2.2,.3,4.3,.4,6.5,.1,0,0,0,.1-.4,.2,1,0,4,0,3.6-.5,0,.3,2.2-.2,3.4-.5v.3c.6-.4,1.3-.8,2.1-.9,.3,0,.3,.1-.1,.1,1.1-.1,.8-.4,2.1-.5l-.4,.2c.6,0,1.1-.2,1.6-.6,.7-.3,1.5-.5,2.2-.4,.4-.3,.8-.6,1.3-.7,0,0-.1,.2-.2,.2,1.9-.4,2.5-1.3,3.8-1.6,0,0,0,0,.1,0s0,0,.1,0c-1.4,.6-2.5,1.1-2.4,1,0,.2,1.2-.3,.4,.4,1-.7,2.2-1.4,3.3-1.9,0,0,.1,0,.2,0h0c.2,0,.5-.2,.7-.3,.3-.1,.6-.3,.9-.4,.2,0,1.3-.6,1.8-.9-.2-.2,.6-.5-.2-.3,0,0,0,0-.4,.3h-.2l-1.3,.9c.4-.4,.9-.7,1.4-.9,.2-.3,.4-.6,.6-.7,.9-.1,2.3-.8,2.6-.8,1.4-1.2,3.6-2.5,4.1-3.6,.4-.4,.5-.3,.7-.4-.2,.2-.4,.4-.6,.6,.7-.7,2.3-2,2.3-2.4,1.1-.8-.4,.7,.9-.6v.2c1.1-1,2.2-2.2,3.1-3.4,.9-1.4,2-2.7,3.2-3.9-.2,.2-.3,.3-.4,.3,2.7-3.6,5-7.6,6.9-11.7,.3-.7,.5-1.4,.6-2.1l.3-.2c0-.4,0-.9,.1-1.3,.2-.9,.5-1.7,.9-2.4,.2-.4,.4-.8,.5-1.3,.1-.5,.2-1.1,.2-1.6l-.2,.3c.2-.8,.4-2.6,.6-2.5,0-.2,0-.4,0-.6h.1c0-.7,0-1.4,0-2.1,.2-1.6,.5,.3,.7-2,0-.9-.1-2.5-.3-2.2-.1,.3-.2,.9-.3,.9v-.8c-.4-.2-.7-.8-1.1,1.1v.6c-.3,.5-.3,1-.1,1.5-.1,.1-.2,.3-.2,.5l.2,1.3c-.2,.1-.2-.6-.4,.2,0,.6,.4-.5,.4,.5-.3,.6-.4,.4-.4,1.2-.1,0-.1,0-.1-.4-.1,.7-.1,1.4-.1,2.1-.2,.4-.3,.9-.4,1.3-.1,.5-.3,.8-.4,.7,0,.7-.1,1.3-.3,2,0-1.2-.7,2.2-1,1.8,.2,.9-.9,2.8-1.3,4.3,0-.1,0-.2,0-.4-.2,.5-.5,.9-.8,1.4,.2,.2-.3,1.4-.5,2.1-.7,.7,0-.7-.4-.6,.3,0-.6,1.6-.2,1.4-.5,.6-.4,.5-.8,.8,.3,.3-.3,.7-.4,1.3-.8,.8-.5,0-1,1.1-.4,.4,0-.6,0-.6Zm-21.1,19.5l.6-.3-.6,.3Zm-2.2,1l1-.4c.1,0,0,.1-.2,.2,0-.2-.5,0-.8,.1h0Zm5.4-.8c-.3,.2-.5,.3-.5,.2l.6-.4s0,0,0,0h0Z"/><polyline class="k" points="94.7 171.3 95.9 167.9 98.2 165.1 100.4 162.3 103 159.8 105.6 157.4 108.2 155 111 152.7 114 150.8 116.9 148.8 120.1 147.2 123.5 145.9 126.8 144.7 130.1 143.4 133.6 142.4 136.9 141.1 140.5 140.6 144.1 140.1 147.7 139.7 151.4 139.9 155 139.7 158.6 140.4 162.3 140.4 165.8 141.2 169.4 142 173 142.5 176.5 143.4 180 144.4"/><g><path class="g" d="M174.3,175.3c-.2,10.3-3,8.9-10,12,11.7,7.3-28.1,15.8-28.6-12h-12.4c.9,31.8,31.5,35.2,56.1,28.3-1.9-.9-4.1-.9-6-2.2,2.9-3.1,13.9-11.1,6-13.5,6.5-2.6,7.3-5.7,7.2-12.6h-12.4Z"/><path class="f" d="M75.8,175.3c.6,14.7-1.2,18.8,15.4,19.1-24.5-1.8-1.8,25,4.8,34-1.4,4.5-8.2,.7-10.8,4,17-.1,17.5,3.6,30.8,12.1,7.7,5.2,16.9,.3,25,3.6-3.2,.5-7.6,0-10.3,2.7,7.4,3.1,16,3.7,24.3,3.9-1.1-6.5,3.6-5.2,.5-9.8-1.4-2.5,3.1-2.6,3.9-4.4-7-1.3-3.7-9.6-4.4-15-3-2.4-1.4-3.4,0-5.7,0-4.1,0-8.2,0-12.3,0-3.3,5-1.7,4.4-3.8,0-1.1-3.2-.5-4.2-2.2-.6-3.5,0-7.3-.2-10.4-1.4-2.9-3-4.3,0-6.9,0-3.4,0-9.4,0-8.7H75.8Z"/><path class="g" d="M221.8,175.3c-.6,13.9,1.1,7.9-8.2,13.1,8.9,.4,5.6,6.3,3.4,12.3,1,1.8,5.3,.2,4.2,2.9-1.3,2.3-7.4,1.7-8.3,5.3-6.4,13.5-13,13-26.3,14.2,3.8,1.6,8.1-1.1,11.3,2.1,1.2,6.6-25.7,11-16.7,17.4-22.6-1.4-49.2,2.3-67.2-14.5-9.8-7.7-17.5-18.1-21.8-30,1.8-3.7,5.6-2.1,8.3-3.7-14.1-1.2-11.1-7.2-12.2-19.1h-12.4c.6,14.7-1.2,18.8,15.4,19.1-24.5-1.8-1.8,25,4.8,34-1.4,4.5-8.2,.7-10.8,4,17-.1,17.5,3.6,30.8,12.1,7.7,5.2,16.9,.3,25,3.6-3.2,.5-7.6,0-10.3,2.7,18,6.6,40.5,4.6,57.6-3.4,4.7-2.6,10.1-1,14.4-3.7,1.1-.5-2.7-1.1-2.1-3.2,2.6-3.5,22.3-15.3,11.8-17.4,9.8-.8,11.7-10.4,16.2-17.4,1.7-1.1,4.4-1.1,4.4-2.7,.5-1.1-2.2-1.6-2.8-2.9,.9-2.9,1.7-5.8,2.3-8.8,.6-2.9-4.7-1.9-4.4-3.5,0-1.6,4.3,0,5.4-3.2,.4-3.1,.5-6.2,.5-9.4h-12.4Z"/><path class="g" d="M198,175.3c-.3,7.2,.6,10.3-6.7,13.1,7.1,1.1,.5,9.1-1.6,12.5,.5,2.6,3.8,2.1,5.4,3.2-3.2,1.6-8.1,0-11.1,3.1-7.7,7.1-17.9,11.3-29.1,11.3-24,.1-43.3-19.9-43.1-43.2h-12.4c-1.1,20.1,10.1,17.5,4.5,21.6,19.7,52.5,96.7,28.1,67.3,26.1,6.7-2.5,14.4,0,19.7-5.5,6.8-5.7,8.9-12.9,18.8-12.9-12.6-2.9,4.1-11.8-4.9-16.3-.5-2.7,3.2-1.1,4.4-3.3,1.2-3,.9-6.5,1.1-9.8h-12.4Z"/></g><path class="b" d="M72.4,210.4c4.2-.9,7.4-4.1,8.3-8.3,.9,4.2,4.1,7.4,8.3,8.3-4.2,.9-7.4,4.1-8.3,8.3-.9-4.2-4.1-7.4-8.3-8.3Z"/><g><path class="e" d="M234,129.8l-2.4-2.3-1.9-2.7-2.3-2.4-2.1-2.6-2.3-2.4-2.5-2.2-2.7-2-2.3-2.5-2.8-1.9-2.7-2-3.1-1.3-3-1.6-2.8-1.8-2.9-1.8-3.1-1.2-3.2-1.1-3.1-1.4-3.3-.6-3.2-1-3.2-1-3.3-.4-3.2-1.2-3.3-.4-3.4-.2h-3.4l-3.3-.5-3.4,.2-3.3,.5h-3.4l-3.3,.4h-3.4l-3.3,.9h-3.4l-3.1,1.4-3.3,.5-3.2,.9-3.2,.9-3.1,1.4-3.1,1.3-3,1.4-3,1.4-3.2,1.1-2.7,2-3,1.6-2.8,1.8-2.7,2-2.5,2.2-2.5,2.2-2.9,1.7-2,2.8-2.5,2.3-2.2,2.5-2.2,2.5-1.9,2.8-.2-.2v3.2l-.4,3.2v3.2l-.2,3.2,.2,3.2,.4,3.2-.7,3.2,.6,3.2-.3,3.2-.2,3.2,.4,3.3-.4,3.3,.3,3.3-.2,3.4h3.3l3.2,.3,3.2-.5,3.2-.3,3.2,.5,3.2-.3,3.3,.6,1.3-3.5,2.2-2.6,1.3-3.2,2.3-2.5,1.8-2.9,2.7-2.1,2.4-2.3,2.3-2.5,2.6-2.1,3-1.5,2.8-1.8,2.9-1.8,2.9-1.8,3.4-.6,3.1-1.2,3.1-1.3,3.3-.5,3.3-.7,3.3-.2,3.3-.2,3.3-.3h3.4l3.3,.4h3.4l3.2,1.1,3.3,.5,3.1,1.4,3.3,.6,3,1.5,3.2,1.1,2.9,1.7,2.9,1.7,2.6,2.2,2.7,2,2.7,2,2.5,2.3,2.3,2.4,2.2,2.5,1.8,2.8,1.9,2.8,1.3,3.1,1.6,3.2h3.7l3.6-.5,3.6-.2h7.2l3.6,.3,.4-3.2v-3.2l-.4-3.2-.2-3.2,.4-3.2-.3-3.2v-3.2l-.3-3.2v-3.2l.4-3.2-.2-3.3,.6-3.3v-3.3l-.7-3.2,.2-.2Zm-36.8-24.7l.5,3.5-.2,3.6v7.1l-.2,3.6v3.6l.3,3.7-3.4-.4-3.3,.2-3.3-.2-3.3,.5h-6.6l-3.1-.4v-3.1l-.2-3.3,.3-3.3-.5-3.3v-3.3l.2-3.3-.3-3.3,.7-3.3v-3.3l-.2-3.2,3.2,.7,3.3,1.1,3.4,.8,3.5,.7,3.2,1.5,3.3,1.2,2.8,1.8Zm-59.2-7.9l.5,3.2-.2,3.3v6.6l-.2,3.3v3.3l.3,3.3-.5,3.3,.2,3.3v3.1l-3.4,.5h-7.1l-3.5-.5h-3.5l-3.5,.3-3.3-.2-.4-3.3v-3.5l.2-3.5-.3-3.5,.7-3.5v-3.5l-.2-3.5,2.8-1.4,3.1-1.1,3-1.4,2.9-1.5,3.2-.8,3.1-1,3.3-.5,3-.6Zm-55.5,32.6l1.8-2.5,2.4-2.2,2.2-2.4,2.5-2,2.5-2.1,2.5-2.1,2.4-2.2,2.9-1.5,2.6-1.9,2.8-1.6,2.9-2v6.5l-.5,3.2v3.2l.3,3.2-.3,3.2,.4,3.4h-3.5l-3.4-.2-3.4,.3-3.4-.7h-3.4l-3.4,.2h-6.8Zm60.1,0l-.5-3.2,.2-3.4v-6.7l.2-3.4v-3.4l-.3-3.4,.5-3.4-.2-3.4v-3.3l3.3-.8,3.5-.4h3.5l3.5,.4h7l3.4,.6h3.6v3.5l-.2,3.3,.3,3.3-.7,3.3v3.3l.2,3.3v10l.4,3.6h-7.2l-3.5-.3-3.5,.4-3.5-.7-3.5,.7-3.5-.3-3.3-.2Zm58.7,0l-.5-3.1,.2-3.3v-6.6l.2-3.3v-3.3l-.3-3.4,2.9,2,2.9,1.6,2.6,2,3,1.5,2.7,1.9,2.4,2.3,2.2,2.5,2.4,2.2,2.4,2.2,2,2.6,2.4,2.5h-3.5l-3.4-.2-3.4,.3-3.4-.7h-3.4l-3.4,.2h-6.7Z"/><polyline class="i" points="114.7 129.6 114.6 125.3 114.8 121 115.2 116.8 114.8 112.5 115.1 108.2 115.1 103.9"/><polyline class="i" points="201.7 131.3 202 127.4 201.4 123.6 201.6 119.7 201.6 115.8 201.6 112 202 108.1"/><polyline class="i" points="142.6 129.6 143 125 142.8 120.3 142.9 115.7 143 111.1 142.8 106.4 142.8 101.8 142.9 97.2"/><polyline class="i" points="175.7 129.6 176.2 125 176.4 120.3 176.4 115.7 175.6 111.1 175.6 106.4 176.4 101.8 175.7 97.2"/><polyline class="j" points="94.8 174.2 95.9 170.7 98 167.7 100.1 164.7 102.6 162 105.1 159.4 107.6 156.7 110.2 154.2 113.2 152 116 149.7 119.2 147.9 122.5 146.4 125.9 145.1 129.2 143.6 132.7 142.4 136.1 141.1 139.7 140.6 143.3 140.1 147 139.8 150.6 140 154.3 139.9 157.9 140.6 161.5 140.7 165.1 141.6 168.6 142.6 172.2 143.3 175.7 144.4 179.1 145.6"/></g><path class="d" d="M203.8,230.2c6-1.3,10.8-6,12-12,1.3,6,6,10.8,12,12-6,1.3-10.8,6-12,12-1.3-6-6-10.8-12-12Z"/><g><path class="h" d="M53.1,178.5c.6-.2,1.4-.9,2.2-1.3-.3,.1-.7,.2-1,.4-.4,.2-.7,.5-1.1,.8Z"/><polygon class="h" points="55.2 177.2 55.3 177.2 55.2 177.2 55.2 177.2"/><path class="h" d="M260,174.7l-.9-.7,.9,.7Z"/><path class="h" d="M102,179.9l.3-.2c1.5,.6,1.7,.7,1.9,.8,.2,.1,.3,.2,1.8,.5,.3,0,.8,0,1.3,0h.8c.2,0,.4,0,.6,.1,.2,0,.5,0,.7,0,.6,0,1.2-.2,1.7-.2,.4,0,.8-.1,1-.2,0,0,1.2-.2,1.1,0,.3-.3,1.2-.3,2-.5,.3-.1-.2,0-.4,0l1.7-.5c.7,0,.9,0,.2,.2,1.1-.2,3.3-.8,5.7-1.2,2.4-.4,5.1-.5,8,0,1.5,.2,2.9,.5,4.4,.8,.4,0,.7,.2,1.1,.2h.5c.2,.1,.4,.2,.6,.2,.3,0,.6,0,.9,0,.8,0,1.6,0,2.4,0,3.1-.1,5.8-1,7-1.4-.7,0-2.3,.6-3,.5,1.4-.5,2.1-.5,2.6-.8,.3,0,1-.1,1.8-.4,.7-.2,1.4-.5,1.9-.4l.2-.3c.2,0,.4,0,.5,0,1.1-.3,1.6-.4,2-.5,.4,0,.5,0,.6,0,0,0,.2,0,.5,0,.2,0,.4,0,.7,0h.5c.2,0,.1,0,.2,0,.6,.1,1.1,.3,1.6,.4,.5,.1,1,.2,1.4,.3,.9,.2,1.6,.3,2.3,.6-.2,0-.8-.4,0-.2,0,.2,1.9,.4,2.2,.7,.7,.2,2.9,.9,2.2,.5,.3,.2,2.4,1,1.1,.7,.7,.2,1.4,.5,2,.6l-.9-.4c.3,0,.6,.2,.9,.3,.3,0,.6,.2,.9,.2,.5,.2,1.2,.2,1.8,.3,.6,0,1.2,0,1.7,0,.5,0,1-.1,1.5-.3-.3,0-.8,0-1.2,0,1.9-.2,3-.6,3.7-.6-.5,.2-1,.3-1.5,.5,1.3-.3,2.2-.6,3.1-.9,.9-.3,1.7-.6,2.6-.9l-.7,.2c.6-.2,1.8-.7,3.3-1.2,.8-.2,1.6-.5,2.5-.8,.2,0,.4-.1,.7-.2,.2,0,.1,0,.2,0h0s0,0,.1,0c.2,0,.4,0,.6,0,.8,0,1.5,.2,2.2,.3,.7,.2,1.4,.5,2,.8,1.3,.6,2.7,1.3,3.3,1.4-.3-.2-.7-.4-1-.7,.7,.3,1.4,.5,2.1,.8-.2,0-1.3,.2-1.5,0,.6,.3,1.5,.6,2.7,.9,1.2,.3,2.7,.5,4.3,.5,1.6,0,3.5-.2,5.3-.9,.9-.3,1.8-.8,2.5-1.1,.7-.4,1.4-.7,2-1,2.3-1,5.4-1,7.5-.6,2.1,.4,3.9,1.4,4.8,1.9,1.6,.8,.2,.4,.1,.4,1,.4,1.3,.4,1.5,.5,.2,0,.3,0,1.3,.4,.5,.2-.1,.1-.4,0,.8,.3,1.6,.5,1.7,.4-1.1-.3-.6-.4-1-.7,.8,.2,1.6,.4,2.5,.5h-.1c.3,.2,.6,.1,1.2,0,.7,0,1.6-.1,2.8-.2,.9-.3,1.8-.5,2.8-.8,.9-.2,1.7-.5,2.6-.7,1.7-.4,3.4-.8,5.1-1,0,0-.7,.2-1.4,.4,.4,0,1.1-.2,1.5-.2-.8,0,1.3-.3,.7-.3,1.2-.3,2.5-.4,3.8-.3,1.3,0,2.5,.3,3.5,.4,0,0,.4-.3,1-.7,.3-.2,.6-.4,1-.6,.4-.2,.8-.4,1.2-.6,.9-.4,1.7-.7,2.5-.9,.7-.2,1.3-.3,1.3-.4,.7,.5,1.4,1,1.6,1.2,0-.1-.4-.4-.9-.8l-.7-.5c-.3-.2-.5-.3-.7-.4h-.2c-.9-.4-1-.5-1.1-.5,0,0-.2-.2-1.1-.6,0,0,.4,0,1,.3,.6,.2,1.4,.7,2.2,1.1-.7-.4-1.3-.8-1.9-1.1-.6-.3-1.1-.5-1.4-.5-1.3-.6,.2-.2-1.4-.8-1.2-.3-2.8-.4-4.1-.7h0c-1.6-.3-2.8-.2-4,0-1.1,.1-2.2,.3-3.6,.4h.3c-1,0-2.8,.4-4.5,.7,.5,0,.9,0,0,.2-1.9,.4-3.1,.8-4.5,1.1l-1.2,.5h-.4c0,.1,0,.1,0,.1h-.7c-.2,0-.5,0-.7,0-1,0-2.1-.2-3.3-.7-1.3-.4-2.9-1.4-5.2-2.1-2.2-.7-4.8-1-7-.9-1.2,0-2.3,.2-3.5,.5-1.2,.3-2.4,.7-3.4,1.2-1,.5-1.9,1-2.5,1.3-.7,.3-1.2,.5-1.8,.7-1.1,.3-2.4,.3-3.4,.2-1,0-1.8-.2-2.4-.4h.2c-.9-.2-1.8-.6-3.1-1.3-1.3-.7-3.2-1.7-5.4-2.1-.5-.1-1.1-.2-1.6-.3-.3,0-.5,0-.8,0h-.9c-.4,0-.8-.1-1.2,0l-1,.3c-.4,.1-.9,.3-1.3,.4-1.8,.5-3.6,1.1-5.4,1.6-1.8,.5-3.6,1.1-5,1.4-.4,0-.6,0-.9,.1-.3,0-.5,0-.8,0-.5,0-1.2-.3-2-.5-1.6-.5-3.2-1-4.7-1.5-1.5-.5-2.9-.8-4.1-1.2-.7-.3-1.6-.6-2.6-.8l-.8-.2c-.2,0-.4-.1-.6-.1h-.6c-.6,0-1,0-1.5,0,1,0,.7,.2-.1,.2-2.9,.1-3,.4-3.1,.4,0,0-.3,0-3,.9-.7,.3-1.6,.6-2.7,1-1,.4-2.1,.7-3.4,.9-1.3,.2-2.7,.3-4.2,.3h-.6l-1.3-.4c-.9-.2-1.8-.3-2.7-.5-3.6-.7-7.4-.8-10.6-.4-3.2,.4-5.5,1-6.7,1.3-1.3,.4-2.8,.8-4.2,1.1-.7,.1-1.4,.3-2.2,.4h-.8c0,.2,0,.2-.2,.2h-.2c-.6,0-1.9-.2-3.4-.7-.7-.3-1.5-.7-2.5-1.2-1-.6-2.3-1.3-3.8-1.7-1.5-.5-3.1-.7-4.5-.7-1.4,0-2.8,.1-4,.4-1.3,.3-2.3,.8-3.2,1.1-.8,.4-1.4,.8-1.8,1l.4-.2c-1.3,.9-1.8,1.2-2.2,1.4-.4,.2-.8,.3-1.6,.6,.1,0-.2,.3-.6,.5-.2,0-.5,.2-.8,.2-.3,0-.5,0-.7,0h0c-.2,0-.2,0-.2,0,0,0-.1,0-.3,0-.5-.1-1-.2-1.6-.4-1.2-.3-2.5-.8-3.5-1.2h.1c-1.8-.7-5.3-2.3-6.8-2.8-1.7-.6-3.9-1.3-6.6-1.4-2.7-.1-5.5,.7-7.7,1.9l-1.5,.6c-.5,.2-1,.4-1.5,.7l-.3,.3s0,.4,0,1c0,.6,0,1.4,.4,2,.5,1.3,1.8,2.2,4.1,1.2v.2l.8-.5c.3-.1,.5-.3,.6-.4l.4-.2c.2-.1,.3-.2,.3,0l-.7,.3-.7,.4c1-.6,.4,0,0,.2,.4-.2,.8-.5,1.2-.5,.2-.1-.2,0-.3,0,.3-.1,.6-.3,.9-.5,.2,0,.3-.2,.5-.3,.2,0,.3,0,.5-.1,.5-.1,.5,0,.6,0,0,0,.1,0,.7,0,1.6-.2,3.2,0,4.9,.5,1.7,.5,3.6,1.3,5.5,2.2,1.9,.9,4,1.8,6.2,2.6l1.7,.5c.5,.1,1,.4,1.5,.3h1.3c1.4-.1,3-.4,4.4-1,.3,0,0,0-.3,.2,1.7-.7,3-1.6,3.9-2.2,1-.6,1.7-1.1,2.5-1.4,.5-.1,.6,0,.7,0,0,0,.4-.2,1.3-.3,.9-.1,2.2-.2,3.3,0,.5,.1,1,.3,1.6,.6,.6,.3,1.2,.6,1.8,.9,.3,.2,.6,.3,.9,.5,.3,.1,.5,.3,.7,.4,.4,.2,.7,.3,.7,.3Z"/></g></svg>