<?xml version="1.0" encoding="UTF-8"?><svg id="a" xmlns="http://www.w3.org/2000/svg" viewBox="0 0 300 300"><defs><style>.b{stroke-width:.8px;}.b,.c,.d,.e,.f,.g,.h,.i,.j{stroke-miterlimit:10;}.b,.c,.k,.l,.e,.f,.m,.g,.n,.i,.o,.p{fill:none;stroke-linecap:round;}.b,.c,.e,.f,.g,.i{stroke:#240a3b;}.c{stroke-width:1.5px;}.q{fill:#7d4698;}.r{fill:#dcf4ef;}.s{fill:#24093b;}.t{fill:#6fc8b7;}.d{fill:#cf63a6;stroke:#cf63a6;stroke-width:.3px;}.k{stroke-width:.5px;}.k,.l,.m,.n,.o,.p{stroke:#24093b;stroke-linejoin:round;}.l{stroke-width:1px;}.e{stroke-width:.8px;}.f{stroke-width:1.6px;}.m{stroke-width:2.7px;}.g{stroke-width:2.4px;}.h{fill:#fed916;stroke:#fed916;stroke-width:.9px;}.n{stroke-width:1.7px;}.i{stroke-width:2.5px;}.j{fill:#ff6a75;stroke:#ff6a75;stroke-width:.5px;}.o{stroke-width:.8px;}.p{stroke-width:1.7px;}</style></defs><path class="r" d="M16.3,112.5H160.4c29-71-68.2-71.8-48.5-11.2,4.6-17.6-28.4-29.7-25.9-.6-9.2-14.2-27.8-35.8-37.2-9.3-1,13.1-22.2,17.7-32.5,21.1Z"/><path class="r" d="M267.7,128.7h-68.9c-14.5-32.7,32.9-34.6,23.2-5.4-2.2-8.4,13.6-14.2,12.4-.3,4.4-6.8,13.3-17.1,17.8-4.4,.5,6.3,10.6,8.5,15.5,10.1Z"/><path class="r" d="M157.1,227.9h66.6c14-31.6-31.8-33.5-22.4-5.2,2.1-8.1-13.1-13.7-12-.3-4.2-6.5-12.8-16.5-17.2-4.3-.5,6.1-10.3,8.2-15,9.7Z"/><path class="t" d="M91.4,27.5h0Z"/><path class="h" d="M97.9,158.6c42.4,.6,42.4-64.5,0-63.9-42.4-.6-42.4,64.5,0,63.9Z"/><path class="m" d="M121.2,127.1c.5,17.2-15.1,41.2-33.7,28.6-17.5-12.5-16.8-44.5-.2-57.7,19.7-13,35,10.9,34,29.1Z"/><path class="m" d="M108.2,126.9c.6,7.3-4.1,43.8-15.8,28.2-6.9-15.4-7.2-43.5,1.9-58,11.4-12.6,14.8,23.3,14,29.8Z"/><g><path class="t" d="M102.4,97.3c-2,0-5.9,0-7.9-.1l.5-29.3c.3-5.7-1.2-25.3,4.5-29.2,8.3,13.8,1.3,42.8,3,58.6Z"/><path class="t" d="M102.5,94.6c0-.4,.1,0,.1,0l-.2-.4v.4Z"/><path class="t" d="M102.5,93v-.2s0,0,0,0,0,0,0,0Z"/><path class="t" d="M102.5,92.2c0,.2,0,.4,0,.6,0-.2,.2,0,.2,.3,0,.3-.1,.3,0,.6v-.4c.1-.4,0-.8-.2-1.2Z"/><path class="t" d="M102.5,93v.2c0,0,0-.1,0-.2Z"/><path class="t" d="M102.5,93.8v.2h0v-.2Z"/><path class="t" d="M102.5,90.9c.2,.1,0,.9,.1,1,0-.5,.2-.9,.3-.8v-.6c-.1-.2-.3,0-.4,.3Z"/><path class="t" d="M103,89.8h0c0-.3,0,0,0,0Z"/><path class="t" d="M102.7,86.9l.2,1.3c0-.1-.1,0-.1-.4v1.1c-.2,.2,0-.9-.2-.6,0,.4,0,.8,.2,1.1v.4c0-.2,0-.5,0-.6,.2-.1,.1,.2,.1,.3,0-.4,.2-1,.2-1.7s-.3-.5-.4-1Z"/><path class="t" d="M103,86.9h0Z"/><path class="t" d="M102.7,85.4v.7c.1,0,0,.1,0,.2,0,0,.1,.2,.2,.1,.2-.3,0-.9,0-1.2,0-1,0,0,.3-.3v.7c.1-.6,.1-1.1,0-1.7,0,.1,0,.2,0,.4v-.4c-.3,.5-.4,1.1-.5,1.6Z"/><path class="t" d="M102.7,86.6v-.4s0,.2,0,.4Z"/><path class="t" d="M103,83.6c0,0,0,.1,0,.2,0,0,0-.1,0-.2Z"/><path class="t" d="M102.8,84v-.3c-.1,0,0,.3,0,.3Z"/><path class="t" d="M103.4,65.5s-.1,.2-.1,.6c-.1,0,0-.5-.1-.8,0,.5-.1,0-.2,.1,0,.5,.1,.8,0,1.4h-.1c0,.9,0,1.7,0,2.6,0,.6,0,1.3,0,1.9-.1,2.4,0,4.9-.2,7.5l.2,.4c0,.1,0,.6-.1,.5,0-.1,0-.3,0-.4,0,.7,0,1.4,0,2.1,0,0,.2-.2,.2,0-.2,0,0,.8-.3,1,0,.7,.2,0,.1,.7,.1,0,0-.7,.2-.8,.1,.2,0,.6,0,.6,0-1.1-.1-3.2-.2-4.9v.2c0-1,0-2,.3-3-.1,.2,0-1.3-.2-1.2,0-.2,0-.4,0-.6h0c0-.5,.1-.5,.1-1-.1,.3-.1,0-.2-.2l.4-1.7c0,0-.1,.2-.1,.3,0-.3,0-.3,0-.4,0-.3,.1-.3,.2-.3,0-.6-.2-.9-.1-1.4v.2c-.1-.6,0-1.2-.1-1.9,.2-.3,.1,.6,.2,.9,0-.2,0-.4,.1-.5,0-.3-.2-.8-.2-1.2,.4,.4,.4-.5,.4-.8Z"/><path class="t" d="M103.4,67.5v.2c0,0,0-.2,0-.2,0,0,0,0,0,0Z"/><path class="t" d="M103.4,70.1c0,.1,0,.3-.1,.5,0,0,0-.1,.1-.5Z"/><path class="t" d="M103.2,74.5v.2c0-.3,0-.4,0-.2Z"/><path class="t" d="M103.5,66.7v0Z"/><path class="t" d="M103.2,55.8c0,.6-.1,1.1-.1,1.7,0,1.1,.3,.1,.3,1.2l-.3-.2c0,1.1,0,2.3,.2,3.4,0,0,0,.3-.1,0,0,.7,.4,.4,.3,1.3-.2-.9-.2,.3-.3,0h0c0,.4,0,1.2,0,1.6,0,0,.2-.3,.2,.2,0-.2,.1-.1,.2-.1,0-.5,0-.8-.1-1.1-.1-.3,0,.2,.1-.1v-.4c0-.3,0,.3,.1-.2,0-.3,0-.6,0-.8h0c0-.2,0-.6-.1-.5l.2-.3h-.1c0-.7,.1-1.4,0-2,0,.3-.1,0-.1-.1,0,.4,0,.5,0,.9-.1,0-.2-.6-.3-.2,.1-.5,0-1,.3-1.2v-1.6c-.2-.1,0-.5,0-1v0s-.1-.8-.2-.9c0,.4,0,.7,.1,1.1-.2-.2-.3-.2-.2-.5Z"/><path class="t" d="M103.4,62.5v-.2c0,0,0,.1,0,.2Z"/><path class="t" d="M103.4,52.8c-.4-.9,.7-3.3-.3-5.1-.1,.7,.4,.3,.2,1.3-.3-.9,0,6.2-.1,4.1-.1,.7,.4,.4,.3,.7,.3,1.8,.5,0-.1-1Z"/><path class="t" d="M103.4,54.8v.1h0Z"/><path class="t" d="M103,54.4s0,.1,.1,.1q0-.3-.1-.1Z"/><path class="t" d="M103.5,49.4v-.2s0,.1,0,.2Z"/><path class="t" d="M103.2,45.6c0,.6,0,1.3,0,1.9,.1,.4,.2-.2,.4,0,0-.4-.2-.4-.2-.8,.1-.2,0-.6,0-1h-.1Z"/><path class="t" d="M102.3,43.3c-2.1-8.9-7.9,1.4-6.5,3.6,2.3-9.1,4.9-8.3,7.5-1.2,.7,.7-.9-3.6-1-2.4Z"/><path class="t" d="M95.3,47.4v.3c0,.1,0,0,0-.3Z"/><path class="t" d="M103.5,46.1v-.3h0v.3Z"/><path class="t" d="M95.1,50.3s0,0,0,0h0Z"/><path class="t" d="M94.6,77.1c.6,6.2,.6-8.1,.5-9.3-.4-6.1,.1-3.1,.2-10.5-.5-3,.3-3.5,0-9.3-.8,1.5,.5,3.3-.2,3.6-.2,1.6,0,4.7,0,6.5,0,.2,0,1.3,0,.5,.2,3.6-.4,7.6-.1,10.9-.2,1.4-.1,6.7,0,2.7,.2,1.5-.1,3.2-.3,4.9Z"/><path class="t" d="M94.8,68.8v.5h0c0-.2,0-.3,0-.5Z"/><path class="t" d="M94.8,69.2c0,0,0,.2,0,.3,0,0,0-.2,0-.3h0Z"/><path class="t" d="M94.7,79c0,.2,0,.3,0,.5,0-.2,0-.3,0-.5Z"/><path class="t" d="M94.8,79.6v-.2h0v.2Z"/><path class="t" d="M94.7,93.5v.8c.1,.1,.1,1,0,.7,.2,.5,0,1.4,.2,1.1,0-2.2,.2-5.3,0-7.9v.4c-.2-1.3,.2-1.8-.1-2.9h.2c0-.5-.3-1,0-1.7h0v-.4c0-.4,0-.8,0-1.2v-.5c0-.3,0,0,.1,0,0-1,.2-1.5-.1-2.2,0,0-.1,.3-.1-.1,0,.6,0,1.2,0,1.8v-.2c.3,.5,0,.4,0,1.2-.1-.2-.1-.6-.2-.7-.2,.9,.2,1.3-.1,1.9,0,.2,0,.4,0,.6,0-.1,0-.3,0-.4,0,.1,0,.3,.2,.4-.1,.2,0,.3,0,.7s-.1-.3-.2-.5v.4c0,.4-.1,.4-.2,.6,0,.2,0-.2,.2,0-.1,1.1-.1,2.1,0,3.2,0-.3-.1-.1-.1-.5,0,.1,0,.6,.1,.6,0,.7,0,1.3,0,2v-.2c.1,.5-.1,1.2,0,2.1,0,.3,.2,.5,.2,1,.1,0,.1-.3,0-.2Z"/><path class="s" d="M96.4,97l3.1-50,2,48.9-5.1,1.1Z"/><path class="s" d="M101.2,85.2h0c0,0,0,0,0,0Z"/><path class="s" d="M101,74.5s0,0,0,0h0Z"/><path class="s" d="M101.7,92.3s-.1,0-.2-.1c0,0,0,0,0,.1,0,0,0,0,0,0,0,0,0,0,0,0,0,0,0,0,0,0,0,0,0,0,0,0Z"/><path class="s" d="M101.1,71.6s0,0,0,0h0Z"/><path class="s" d="M99.3,47.4v.6c0,0,0-.6,0-.6Z"/><path class="s" d="M100.7,69.9h0c0,0,0,0,0,0Z"/><path class="s" d="M100.5,62.5c0,0,0-.1,0-.2,0,0,0,.1,0,.2Z"/><path class="s" d="M100.3,59.5h0v0Z"/><path class="s" d="M97.6,85.4s0,0-.1,.1c0,0,.1,.4,.1-.1Z"/><path class="s" d="M98.8,66.3h0c0,0,0,0,0,0Z"/><path class="s" d="M99.4,60.7c0,0,0-.2,0-.2v.2Z"/><path class="s" d="M97.6,88.3c-.2-.6-.1-2.9-.4-3,.6-.4,.6-3.2,.8-6.4,.4-1.6,0-3.9,.2-5.3,0-2.5,.4-5.2,.6-7.3-.3,.5,.2-1.3,.1-1.6-.1-.5,.1-4.4,.2-4.3-.2-2.6,0-.8,0-2.6,0-.5,0-1.6,0-.1,0-1.4,0,3,0,.2v.4c0-2.8,0,0,0-2,0,5.5,0-.9,0,3.1,0-1.5,0-2.6,0-.3,0-4.1,0-.6,0,1.2,.1-1.2,.2-4.1,.2-.7,0-1.2,0,0,0-.3,0,.1,0,.3,0,.3,0,.5,0,.1,0-.1,0,.4-.1,.4-.1,.5,0,0,0,.1,0-.1,.2,7.4,.9,8.6,.8,15.1,0-.5,.1,1.3,.1,.5v.6c0-1.1,.6,1.3,0,1.1,0,.5,.2,1.6,.2,1.6,0,1.7-.2,1.7,0,3.5-.1,1.3,.4,5.2,.2,6.8,.5,.2,.2,1.8,.2,2.8,.9,4.8-1.2,3.5-2.8,4.5-.1-.2,.3-.2,.4-.1,1.7-.5,3.8,.8,2.8-2.7,.3-4.8-.4-9.6-.3-13.6,.3-3-.2-3.7,0-5.9,0-1.7,.2-1.7-.2-3.2,.4,1-.1-1.1,0-1.5v.2c0,0,0-3.8,0-1.9-.2-.7-.2-.3-.2,.1-.1-1.6,0-4.9-.2-6.4-.1-.6,0-3.1-.2-4,0-4.5-.7-5.4-.2-6.5,0-1.3,0-1,0-1,0-1.4-.2,.6-.2,.7-.1,1,0-.9,0-.2v-1.3c-.2,1-.1-.3,0-.5,0-.9-.2,1.4-.2,.4,0-.5,0-2.7-.2-2.1,0,1,0,.6,0-.3,0,.3,0,.5,0,.4,0,1.3,0-.4,0,.4v-.5c-.3,2-.1,2.7-.2,5.1v-.8c-.2,5.7-.4,12.3-1,17.9,.3,2.3-.3,4.3,0,6.5-.5,3.1-.3,3.8-.4,7,0,.8,.2,1,0,1.4,.2,1.6-1.6,15.2,0,11.8,.2-.4,0,.6,.2,0,0-.5-.2-.7,0-.9-.3,0,0-.9-.1-.4-.2-1.9,1.3-7.6-.3-6.4Zm.2-10.2v.3s0-.6,0-.3Zm-.9,1.6v-.2c0,.4,.1,0,0,.2Z"/><path class="s" d="M98.8,67.2h0Z"/><path class="s" d="M101,91.6v.3c0,0,0-.2,0-.3Z"/><path class="s" d="M99.9,70.1c0-.2,0-.1,0,0h0Z"/><path class="s" d="M100.5,76.9v-.2c0,0,0,.2,0,.2Z"/><path class="s" d="M100.4,76.4c0,.1,0,.2,0,.3,0-.1,0-.2,0-.3Z"/><path class="s" d="M101.6,92.8c0,.3,0,0,.1,0s0-.2-.1,0Z"/><path class="s" d="M101.2,81.9h.1c0-.2,0,0-.1,0Z"/><path class="s" d="M100.5,79.9v.2h0v-.2Z"/><path class="s" d="M101.2,78.6h0v0Z"/><path class="s" d="M100.5,60.2h-.1c0,.3,.2,.4,.1,0Z"/><path class="s" d="M97.8,65.1v0Z"/><path class="s" d="M125.9,84.1c-1.3,0-2.5-.4-3.5-1.2-1-.8-1.8-1.8-2.2-3l-7.6-22.7,3.9-1.8,9.4,28.8Z"/><path class="s" d="M125.7,84.2s.1,0,0-.1h0Z"/><path class="s" d="M125.7,83.5s-.3-.2-.3,0c0,.2,.1,.1,.3,.2s0,.2,0,.2c0,0,0,.2,.1,.2,0,0,0-.2,0-.2s0-.2-.1-.2c0,0,0,0,0,0Z"/><path class="s" d="M121.1,68s0,0,0,0h0Z"/><path class="s" d="M123,74.5v-.2s0,0,0,.2Z"/><path class="s" d="M123.9,77h0Z"/><path class="s" d="M124.5,78.8h-.2s0,0,0,0,0,0,0,0c0,0,0,0,0,0Z"/><path class="s" d="M120.6,66.2s0,0,0,0h0Z"/><path class="s" d="M112.3,58c0-.2,.2,.3,.2,0,0,0-.3-.2-.2,0Z"/><path class="s" d="M125,82.4s0,0,0,0h0Z"/><path class="s" d="M118.1,59.2h0Z"/><path class="s" d="M120.7,79.9h0c0,.1,.1,.3,0,0Z"/><path class="s" d="M117.7,61v-.3s0,.3,0,.3Z"/><path class="s" d="M117.3,60c0,0,0-.1,0-.2v.2Z"/><path class="s" d="M121.7,81.3c-.2,0-1.9-1.7-1-1.4-.9-1.1,.7,.5-.2-1-.7-2.3-2.9-6.9-3.6-10.4,.6-2-6-11.6-1.7-11.7,2-2,3.3,9.1,5,9.7-.6,.2,.8,2,.6,2.6,.9,2.2,3.2,8.2,3.4,10.4,.6,1,1.4,3.9,1.9,4.6,.1-1.2-.5-1.5-.2-2.3-.4-1.2-1.3-3.7-1.3-5.1-.4-1.2-1.5-3-1.9-5.4-.3-1.3-1.4-3.8-1.3-4.8-.8-2.1-2.9-7.3-4.4-11.8-1.5,.9-5.7,.9-4.2,3.7,2.2,5.1,3.6,12.3,5.5,16.3,.5,1.7,1.5,8.8,7.5,10,1.6-1.1-.9-.7-.8-1-1.8-.6-2.8-1.1-3.4-2.4Zm-2.4-5.2h0Zm-.2-.5c0,0,0,.3,0,.2,0,0,0-.1,0-.2Zm-.4,1.3h0Z"/><path class="s" d="M123,74.6h0Z"/><path class="s" d="M117.1,69h0Z"/><path class="s" d="M123.8,78.5v.2c0,0,0-.1,0-.2Z"/><path class="s" d="M119.3,65.6s0,0,0,0h0Z"/><path class="s" d="M121,69.6h-.1c0-.1,0,0,.1,0Z"/><path class="s" d="M117.7,61.1h0Z"/><path class="s" d="M120.8,69.3c0,0,0,.1,0,.2,0,0,0-.1,0-.2Z"/><path class="s" d="M125.2,83.2h0Z"/><path class="s" d="M125.4,83.4h0c0,0,0,0,0,0Z"/><path class="s" d="M124.8,81.7v.3s0-.3,0-.3Z"/><path class="s" d="M124.8,80v.3s0-.2,.1,0c0-.4,0,0-.1-.3Z"/><path class="s" d="M124.6,79.1c0,.2,0,0,.1,0s-.1-.1-.1,0Z"/><path class="s" d="M122.4,72.5h.1c0-.1,0,0-.1,0Z"/><path class="s" d="M121.4,71.5h0v0Z"/><path class="s" d="M121.9,70.5h0v0Z"/><path class="s" d="M118.3,59.4h-.1c0,.2,.2,.1,.1,0Z"/><path class="s" d="M115.9,55.2s-.3,0-.4,.1c.1,0,.2,0,.4-.1Z"/><path class="s" d="M115.7,68.1h0Z"/><path class="t" d="M97,98.2h4.5l15.6-43.2h-4.5l-15.6,43.2Z"/><path class="t" d="M98.7,93.5c.2,.1-.3,.7-.2,.8,.1-.4,.4-.6,.5-.5v-.4c0-.2-.1-.1-.3,.2Z"/><path class="t" d="M99.9,90.5l-.2,1.1c0-.1-.1-.1,0-.3-.2,.4,0,.5-.2,.9-.2,0,.2-.6,0-.5-.1,.3-.2,.6-.1,.9l-.3,.4h.2c.1-.2,0-.4,.1-.4,.1,0,0,.2,0,.3,0-.3,.4-.7,.6-1.2,.2-.5-.2-.6-.1-1Z"/><path class="t" d="M100.1,90.5h0Z"/><path class="t" d="M100.3,89.4v.6s0,0-.1,0c0,0,0,.2,.1,.2s.2-.6,.2-.9c.3-.7,0,0,.3-.2,0,.2-.1,.2-.2,.5,.3-.4,.4-.8,.4-1.3,0,0-.1,0-.2,.2v-.3c-.3,.4-.5,.8-.6,1.3Z"/><path class="t" d="M99.9,90.3c0-.2,0-.3,.1-.3,.1,0-.1,0-.1,.3Z"/><path class="t" d="M101,88.1v.2c0,0,0-.1,0-.2Z"/><path class="t" d="M100.7,88.3l.2-.4h-.1c0,.1,0,.4,0,.4Z"/><path class="t" d="M105.9,74.6s-.2,.1-.2,.4v-.6c-.2,.3-.1,0-.2,0-.2,.4,0,.6-.3,1.1h-.1c-.1,.7-.3,1.3-.6,2-.2,.5-.3,.9-.5,1.4-.7,1.7-1.3,3.7-2,5.6v.3c-.1,0-.2,.5-.3,.4,0-.1,.1-.2,.1-.3-.3,.4-.4,1.1-.6,1.6,0,0,.2,0,.2,0-.2-.1-.2,.6-.5,.6-.2,.5,.2,0,0,.6,.1,.1,.2-.5,.4-.5,0,.2-.2,.5,0,.5,.4-.8,.7-2.4,1.1-3.7v.2c.2-.8,.5-1.5,.9-2.2-.1,0,.4-.9,.1-.9,0-.1,.2-.3,.2-.4h0c.1-.4,.2-.3,.3-.7-.2,.2-.1,0-.2-.2l.8-1.2c0,0-.1,0-.2,.2,.1-.2,0-.2,0-.3s.2-.2,.3-.1c.2-.5,0-.8,.2-1.1h-.2c.2-.5,.4-.9,.6-1.4,.2-.2,0,.5,0,.7,0-.1,.1-.3,.2-.4v-1c.2,.4,.4-.2,.5-.4Z"/><path class="t" d="M105.5,76.1v.2c0,0,0-.1,0-.2Z"/><path class="t" d="M105.9,74.6s0,0,0,0h0Z"/><path class="t" d="M104.5,77.5h0v0Z"/><path class="t" d="M104.9,78.1c0,.1-.2,.2-.3,.4,0,0,0,0,.3-.4Z"/><path class="t" d="M103.5,81.3h0c0,.3,.1-.1,0,0Z"/><path class="t" d="M105.7,75.5v0Z"/><path class="t" d="M108.1,67.1c-.2,.4-.4,.8-.5,1.3-.2,.8,.2,.2,0,1l-.2-.2c-.4,.8-.6,1.7-.7,2.6,0,0-.1,.2-.1,0-.2,.5,.3,.4,0,1,0-.7-.2,.2-.3,0h0c-.2,.3-.3,.9-.4,1.2,0,0,.3-.2,.1,.2,0-.2,.1,0,.2,0,0-.3,.1-.6,.2-.9,.2-.2,0,.2,.1,0v-.4c.1-.2,0,.3,.2,0,0-.2,0-.4,.1-.6h0c0-.1,.2-.4,0-.4l.2-.2h-.1c.3-.6,.6-.7,.7-1.5,0,.2,0,0,0-.1-.2,.3,0,.4-.2,.7-.1,0,0-.6-.2-.2,.3-.4,.3-.8,.6-.9,.2-.5,.1-.7,.4-1.2-.1-.2,.2-.4,.2-.8v-.1c-.1-.2-.1,0-.1,0v-.7c0,.3-.1,.6-.2,.8,.1-.4,0-.4,.1-.6Z"/><path class="t" d="M106.7,72.3v-.2c0,0,0,.1,0,.2Z"/><path class="t" d="M109.1,65c.1-.3,0,.1,.2-.2,.2-.3-.3,.3-.3,0,0-.3,.1-.5,.2-.6,0,.2,.2,.1,.3,.1,0-.2,.1-.4,.3-.6-.3,.5,0-.4-.2,0,0,0,0-.6,.2-.7,.2-.2,0,.2,0,.3s.2-.3,.3-.3c0-.5,.6-2.1,.1-1.7-.1,.1-.1,.3-.2,.5,.2-.5,.2,0,.2,.1,0,.1-.2,.6-.2,.5v-.4c-.4,1.1-1,2.5-1.4,3.8l.2-.5v.6l.3-.2c0,.1-.1,.3-.2,.3,0,0,.1,.1,.2,0-.1,.3-.2,.5-.2,.8,.4-.6,0-.6,.5-1.3l-.3-.4Z"/><path class="t" d="M108.7,66.5v0h0Z"/><path class="t" d="M108.4,66.1h0c.2-.2,.1-.2,0,0Z"/><path class="t" d="M110.1,62.5v-.2s0,.1,0,.2Z"/><path class="t" d="M110.7,59.5c-.1,.5-.3,1-.5,1.4,0,.4,.3,0,.4,.1,.1-.3,0-.3,0-.7,.2,0,.2-.5,.3-.8,0,0-.1,0-.1,0Z"/><path class="t" d="M111.7,57.7c0-.2,.1-.5,.2-.7v.4c.2,0,0-.3,.3-.5,.3-.2,0,.1,0,0,.3-.7,0-.4,.4-1.3v-.3s.2-.2,.2-.2c.1,0,.3,.1,.4,.2,0,0-.2-.2-.2-.3,.9,.2,.9,0,1.5,.1,0,0-.2,0-.3,0,0,.2,.5,0,.8,0v.2c.4,0,.8,0,1.2,0h.7c0,.2-.2,.5-.3,.9l-.2,.3c-.2,.9,.4-.8,.4-.1-.3,0,0,.5-.4,.9s.1-.5-.1-.3c.1,.2,0,.3-.1,.5-.1-.1-.2,.5-.3,.3v1c-.1,.2-.2,.4-.3,.6,.2-.5,.2,.2,.4-.3,.2-1,.4-2.1,.8-3.1-.2-.1,.3-.8,.1-.8l.2-.2c-.9,0,0,.1-.2,.2s-.5-.1-.4-.2c-.6,0,0,0-.4,.2l-.3-.2c-1,0-2.1,0-3.3,0-.3,.7-.5,1.3-.7,1.9h.2c-.3,.7-.2,1.3-.7,1.9v.3c0-.2-.2,0-.3-.2,0,.2-.2,.4-.2,.6l.2-.3c0,.1,0,.2,0,.3,0,.1-.1,.2-.2,.3,0,.6,.3-.3,.5-.3,0-.9,.5-.7,.7-1.5,.2-.6,0-.2-.2-.2Z"/><path class="t" d="M111.1,58.5s0,0,0,.1c0,0,0,0,0-.1Z"/><path class="t" d="M115.3,59.3v.2s0,0,0-.2Z"/><path class="t" d="M110.9,60v-.2h0v.2Z"/><path class="t" d="M114.4,61.4s0,0,0,0h0Z"/><path class="t" d="M112.2,67.3h0c0-.1,0,0,0,0Z"/><path class="t" d="M107.3,81.5c-1,5.2,3.4-8,3.7-9.5-.3,.7,0-.7,.1-1.1,.3,.7-.2,1.1,.7-.8,.5-1.2,1.7-6.9,1.5-4.3,0-1.2,2.3-5.2,1.3-5.3-.2,1.5-.3,2.1-.7,2.4-.7,.9-.8,3.6-1.7,4.8-1.5,5.1-3.5,10.1-4.9,14Z"/><path class="t" d="M109.5,75.3l-.2,.3h.1c0-.1,0-.2,.1-.3Z"/><path class="t" d="M109.4,75.6c0,0,0,.1,0,.2,0,0,0-.1,0-.2Z"/><path class="t" d="M106.8,82.9c0,.1-.1,.2-.1,.4,0-.1,.1-.2,.1-.4Z"/><path class="t" d="M106.7,83.4v-.2h0v.2Z"/><path class="t" d="M103.2,93.8c-1.1,5.5,3.2-8.7,3.4-8.6,1.6-4.6-1.4,2.9-.9,1.8,0,.4-1.1,3.5-1,2.9-.3,1.1-.8,3.9-1.4,3.9Z"/><path class="s" d="M71.5,83.2c7.9,1.4,11.6-24.7,14.4-28.8-6.8-5-12.2,26.7-14.4,28.8Z"/><path class="s" d="M71.2,83.2h0Z"/><path class="s" d="M71.7,82.6c0-.1,0-.3-.2-.3-.2,0,0,.2,.1,.3,.1,.2-.1,.1-.1,.1s0,.1,0,.2c0,0,.1-.1,.2-.2,0,0,0-.2,0-.2,0,0,0,0,0,0Z"/><path class="s" d="M75,73.5h0c0-.1,0,0,0,0Z"/><path class="s" d="M73.6,78s0,0-.1-.1c0,0,0,0,0,.1h.1Z"/><path class="s" d="M74,83.4s0,0,0,0h0Z"/><path class="s" d="M84.8,55.9c.2-.2,0,.3,.2,.1,0,0-.1-.3-.2-.1Z"/><path class="s" d="M85,56h0Z"/><path class="s" d="M80,59.3h0c0-.1,0,0,0,0Z"/><path class="s" d="M80.6,57.7h0Z"/><path class="s" d="M77.8,79.3h-.1c0,0,0,.3,.1,0Z"/><path class="s" d="M79.2,59v-.3c0,0,0,.2,0,.3Z"/><path class="s" d="M81.9,67.4s0,0,0,0h0Z"/><path class="s" d="M79.5,57.9c0,0,.1,0,.1-.1h-.1Z"/><path class="s" d="M77,80.3c.5-.5,.6-2,.5-2,.7-.7,3-8.7,4.4-12.8v.2c1-3.7,2.6-8.3,4.1-12.8-1.3,.3-4,0-5.1,0-1.1,3.1-2.2,7.2-2.7,8.7,0,.6-.5,1.3-.4,1.5-.5,2.9-2.6,8.7-3.9,12.6,.2,.5-.3,1.9-.8,2.3,0,1.4-1,3.1-1,3.9,.5-1.4,2.6-5.6,2.5-7.2,.5-.4,1-1.8,1.3-3.3,.6-.9,1.4-2,1.2-3.7,.2-.4,.4,.1,.3,.1,.4-.5,.2-1.3,.5-1.7,.8-.5,0-1,.6-1.7-.2,0-.1-.3-.2-.5h0c0-.3,.1,0,.3-.7,.6,.1,.3-1.2,.3-.2v-.3c-.3,1.1,.5-1.4,.6-1.2,0-.6,.7-.9,.4-1.8,.6-.8,1.3-4.4,1.6-5.3,2.8,.4,4.4-.4,2.6,2.8-.9,5.1-3.4,10.2-4.3,14.6-1.6,3,0,10-6.5,11.7-.5,.3-.4,0-.8,0-.7,0-.5,1.1,.2,.7,.1,.2,6.2-1.4,4.1-3.6Zm2-6h0Zm.2-.5v0Zm-1.1,.8h0Z"/><path class="s" d="M75,73.5h0Z"/><path class="s" d="M81.8,68h0Z"/><path class="s" d="M73.2,77.3v0Z"/><path class="s" d="M77.7,63.8c0-.1,0,0,0,0h0Z"/><path class="s" d="M76.5,68.1v-.2s0,.1,0,.2Z"/><path class="s" d="M76.5,67.9c0,0,0,.1,0,.2,0,0,0-.1,0-.2Z"/><path class="s" d="M71.5,82h0Z"/><path class="s" d="M71.5,82.1s0,0,0,0h0Z"/><path class="s" d="M71.5,82.3h0c0-.1,0,0,0,0s0,0,0,0Z"/><path class="s" d="M72.1,80.5c0,0-.2,.2-.2,.3,0,0,.2-.2,.2-.3Z"/><path class="s" d="M73.1,79.2v.3c-.1,0,0-.1,0,0,.3-.3-.1,0,0-.3Z"/><path class="s" d="M73.5,78.3c0,.2,0,0,.1,0s0-.2-.1,0Z"/><path class="s" d="M75.8,71.4h.1c0,0-.1,0-.1,0Z"/><path class="s" d="M75.7,70h-.1v0Z"/><path class="s" d="M76.7,69.4h0v0Z"/><path class="s" d="M80.6,58h-.2c0,0,.1,.2,.2,0Z"/><path class="s" d="M82.9,54.7s0,0,.1,0,.1,0,.1,0c0,0-.2,0-.3,0Z"/><path class="s" d="M81.2,66.3h0Z"/><path class="t" d="M99.9,98.3h-4.5l-14.4-44.6h5.8l13.1,44.6Z"/><path class="t" d="M98.4,93.2c.2,0,.2,.7,.4,.8-.1-.4,0-.8,0-.7l-.2-.4c0-.1-.2,.1-.2,.4Z"/><path class="t" d="M98.7,92.2s0,0,0-.1c0,0,0,0,0,.1Z"/><path class="t" d="M97.7,90.1l.5,1c-.1,0-.1,0-.2-.3,.1,.5,.3,.5,.3,.9,0,.4-.2-.7-.3-.4,0,.3,.2,.6,.4,.8v.5l.2-.2c0-.2-.3-.3-.2-.4,.1-.2,.1,0,.2,.2,0-.4-.1-.9-.3-1.3-.2-.5-.4-.3-.6-.7Z"/><path class="t" d="M97.9,90h0Z"/><path class="t" d="M97.3,88.9l.3,.5c0,0,0,.1,0,.2,0,0,.2,0,.2,0s-.2-.6-.4-.9c-.1-.8,.1,0,.2-.3,0,.2,0,.2,0,.5,0-.5-.2-.9-.4-1.3,0,0,0,.2,0,.3v-.3c-.2,.5-.1,1,0,1.4Z"/><path class="t" d="M97.6,89.9v-.3s-.1,.2,0,.3Z"/><path class="t" d="M97.1,87.4c0,0,0,.1,0,.2,0,0,0-.1,0-.2Z"/><path class="t" d="M97,87.8v-.2s0,.2,0,.2Z"/><path class="t" d="M93.1,73.3c-.3,2,3.1,10.9,3.9,13.9-.9-3.9-2.9-11.2-3.9-13.9Z"/><path class="t" d="M93.6,74.8v.2c0,0,0-.1,.1-.2h-.1Z"/><path class="t" d="M93.1,73.3s0,0,0,0h0Z"/><path class="t" d="M94.2,76.8v.5c0,.2,0-.1,0-.5Z"/><path class="t" d="M95.1,80.3c0,.1,0,0,.1,.1,0-.2-.1-.3-.1-.1Z"/><path class="t" d="M93.4,74.2l-.2-.4v-.2l.2,.6Z"/><path class="t" d="M90.3,65.8c.9,3.1,1.5,5.2,2.4,7.1-.8-3.1-1.8-6.8-2.4-7.1Z"/><path class="t" d="M92.3,70.9h-.1c0-.1,0,0,.1,0Z"/><path class="t" d="M89.9,63.4c0-.3,.1,0,.1-.3-.8,.7-.1-.7-.4-1.1,0,1.1-1.3-3.9-1.1-1.9,0-1,.8,1.4,0,.2,.5,1.5,1,4.6,1.4,3.6,.7,1.5,.6,.8,0-.5Z"/><path class="t" d="M90.4,64.9h0Z"/><path class="t" d="M89.9,64.8h.1c0-.3-.1-.2-.1,0Z"/><path class="t" d="M89.2,60.7l-.2-.4v.3s.1,0,.2,.1Z"/><path class="t" d="M87.8,57.9c.2,.5,.4,1,.4,1.5,.2,.3,.2-.2,.4-.1,0-.3-.3-.2-.4-.5-.1-.3-.2-.5-.2-.8h-.2Z"/><path class="t" d="M87.7,55.8c.2-3.3-2.3-2-5-2.4-3.4-.2-1,.8-1,2.8,2.5,3.4-2.2-3.4,1-2.5,4-.7,5.5,2.1,5.4,3.6,.6,2.5,.2-2.5-.3-1.5Z"/><path class="t" d="M82.3,57.7v.2s0,0,0-.2Z"/><path class="t" d="M88.4,58.2v-.2h-.1v.2Z"/><path class="t" d="M84.8,66.1h0c0,0,0,0,0,0Z"/><path class="t" d="M89.7,80.8c2.2,4.4-1.1-4.9-1.9-6.6-1.4-4.6-1.6-5.2-3.8-11.3,1.9,3.7-2.9-8.8-1-3.1,1.8,6.1,5,15.5,6.7,20.9Z"/><path class="t" d="M87.6,74.3v.3c0-.1,0-.2,0-.3Z"/><path class="t" d="M87.7,74.7c0,0,0,.1,.1,.2v-.2h-.1Z"/><path class="t" d="M90.2,82.2c0,.1,0,.3,.1,.4,0-.1,0-.3-.1-.4Z"/><path class="t" d="M90.4,82.7v-.2h0v.2Z"/><path class="t" d="M94.1,93.3l.3,.5c0,.1,.3,.8,0,.6,.3,.3,.4,1.1,.5,.8-.6-1.7-1.3-4.1-2.1-6l.2,.3c-.5-1-.3-1.5-.9-2.2h.2c-.1-.5-.6-.8-.5-1.4,0-.1,0-.2,0-.3-.2-.3-.3-.6-.3-.9,0,0,0,.2,.1,.3,0-.2-.2-.4-.3-.7,0-.3,0,0,.1,0-.3-.8-.3-1.2-.7-1.7,0,0,0,.2-.2,0,.1,.5,.3,1,.6,1.4h0c.4,.2,0,.2,.3,.8-.2-.1-.2-.4-.3-.5,0,.8,.5,1,.4,1.5,0,.2,.1,.3,.2,.4,0-.1,0-.2,0-.3,0,.1,.2,.2,.3,.2,0,.2,.1,.2,.2,.5,0,.3-.2-.2-.3-.3l.2,.3c.1,.3,0,.4,0,.5s0-.2,.2,0c.1,.9,.3,1.8,.7,2.6,0-.2-.1,0-.2-.3,0,.1,.2,.5,.3,.4,.2,.5,.4,1,.4,1.6v-.2c.3,.3,.2,1,.5,1.6,0,.2,.3,.3,.4,.7-.1,0-.2-.3-.3-.3Z"/></g><polyline class="p" points="55 211.2 56.5 209.7 57.6 207.9 58.9 206.2 60.3 204.5 61.4 202.7 62.8 201.1 64.1 199.4 65.4 197.7 66.7 196 67.9 194.3 69.3 192.7 70.6 191 71.7 189.1 73.1 187.5 74.3 185.8 75.8 184.2 76.9 182.4 78.1 180.6 79.5 178.9 80.7 177.2 82.2 175.6 83.3 173.8 84.6 172.1 85.9 170.4 87.3 168.8 88.7 167.2 89.9 165.4 91.1 163.6 92.8 161.9 94.8 160.4 96.4 158.8 96.4 160.5 96.4 162.5 96.1 164.4 96.3 166.6 96.3 168.8 96.6 171 96.4 173.2 96.6 175.4 96.5 177.5 96.6 179.7 96.4 181.9 96.3 184.1 96.5 186.3 96.3 188.5 96.3 190.7"/><polyline class="p" points="96.9 158.6 98.4 160.5 100.3 162 102 163.8 103.4 165.4 104.7 167.1 106.3 168.6 107.4 170.5 108.9 171.9 110.4 173.5 111.8 175.1 113 176.9 114.3 178.6 115.6 180.3 117 181.9 118.5 183.5 119.8 185.2 121.3 186.6 122.7 188.3 124 190 125.4 191.6 126.9 193.1 128.1 195 129.6 196.5 131 198.1 132.3 199.8 133.8 201.3 135.1 203.1 136.4 204.8 137.9 206.4 139.2 208 140.7 209.6 141.9 211.4"/><path class="l" d="M190.2,244.1c.4-1,.2-1.2,.6-2.2s.5-1,.9-2.1,.5-1,.9-2.1,.5-1,.9-2.1,.4-1,.9-2.1,.3-1.1,.7-2.2,.7-.9,1.1-2,.5-1,.9-2.1,.5-1,1-2.1,.3-1.1,.7-2.2,.2-1.1,.7-2.2,.7-.9,1.2-2,.3-1.1,.7-2.2,.6-1,1-2,.3-1.1,.8-2.2,.7-.9,1.2-2,.2-1.2,.6-2.2,.7-1,1.1-2,.5-1,.9-2.1,.2-1.2,.6-2.2,.7-1,1.1-2,.3-1.1,.7-2.2,.6-1,1-2,.4-1.1,.9-2.1,.2-1.1,.7-2.2,.7-1,1.1-2,.3-1.1,.8-2.2,.4-1.1,1-2c.7-.3,1.5-.9,2-1.5,.9-.9,1.2-1.8,1.3-.6s.1,1.2,0,2.5c0,0,.2,.8,.2,2.3s0,1.4,0,2.3,0,1.5,0,2.3,0,1.5,0,2.3-.1,1.5-.1,2.3,0,1.5,0,2.3,.3,1.5,.3,2.3,0,1.5,0,2.3-.2,1.5-.1,2.3-.2,1.5-.1,2.3,0,1.5,0,2.3,.1,1.5,.2,2.3-.1,1.5-.1,2.3,0,1.5,0,2.3,0,1.5,0,2.3,.1,1.6,.1,2.3,0,1.6,0,2.3,.2,1.6,.2,2.3c0,1.4,0,1.1,0,2.3"/><path class="l" d="M247.9,244.2c-.5-1-.4-1.1-.9-2.1s-.4-1.1-.8-2.1-.5-1-.9-2.1-.6-1-1-2-.4-1.1-.9-2.1-.3-1.1-.8-2.2-.6-1-1-2-.3-1.1-.7-2.2-.8-.9-1.2-2-.4-1.1-.8-2.1-.6-1-1-2-.4-1.1-.9-2.1,0-1.2-.6-2.3-.8-.9-1.3-1.9-.2-1.2-.6-2.2-.6-1-1-2-.3-1.1-.8-2.1-.7-1-1.1-2-.2-1.1-.7-2.2-.7-1-1.1-2-.2-1.2-.6-2.2-.7-.9-1.2-2-.5-1.1-.9-2.1-.4-1.1-.9-2.1-.4-1.1-.9-2.1-.5-1-.9-2.1-.6-1-1.1-2,0-1.3-.7-2.2-.8-.8-1.7-1.5-.8-.8-1.6-1.5"/><path class="j" d="M219.6,182.6c28.3-.4,28.3-35.7,0-36.2-28.3,.4-28.3,35.7,0,36.2Z"/><path class="n" d="M235,164.7c.2,11.2-11.1,23-22.2,16.2-11.4-6.6-11-25.6-.1-32.7,11.7-6.9,22.9,4.5,22.4,16.5Z"/><path class="n" d="M226.4,164.6c.4,4.5-2.6,23.7-9.9,16.6-5.4-7.8-4.8-24.9,.1-32.9,7.7-8.5,10.3,11.4,9.8,16.3Z"/><path class="t" d="M220.1,143.9s0,0,0,0c0,0,0,0,0,0Z"/><polyline class="k" points="148.1 141.9 148.9 139.9 150 138.1 150.8 136.1 151.7 134.1 152.5 132.1 153.7 130.3 154.4 128.3 155.5 126.4 156 124.3 157.2 122.5 158.1 120.6 159.1 118.7 159.7 116.6 160.6 114.6 162.3 113.1 162.4 115.2 162.5 117.4 162.6 119.6 162.8 121.8 162.6 124 162.9 126.2 163 128.4 163 130.6 162.8 132.8 163.1 135"/><polyline class="k" points="176.8 142.1 175.9 140.1 175.2 138.1 174 136.2 173.3 134.2 172.5 132.1 171.3 130.3 170.7 128.2 169.7 126.2 168.5 124.4 167.8 122.3 166.7 120.5 165.6 118.6 164.8 116.5 163.7 114.7 162.4 113"/><path class="d" d="M162.7,113c5.3,0,9.7-4.7,9.7-10.4s-4.3-10.4-9.7-10.4-9.7,4.7-9.7,10.4,4.3,10.4,9.7,10.4Z"/><path class="o" d="M169.6,102.7c-.5,14-13.7,13.7-13.7-.2,.4-14,13.7-13.8,13.7,.2Z"/><path class="o" d="M165.7,102.6c.2,2.2-1,14.2-4.7,9.2-2.1-5.6-2.2-14.1,.8-19.3,3.6-2.7,4,8.1,3.9,10.1Z"/><g><path class="t" d="M163.9,92.2c-.6,0-1.8,0-2.4,0v-8.9c.2-1.7-.2-7.6,1.5-8.8,2.5,4.2,.4,13,.9,17.7Z"/><path class="t" d="M163.9,91.4c0-.1,0,0,0,0h0Z"/><path class="t" d="M163.9,90.9h0s0,0,0,0,0,0,0,0Z"/><path class="t" d="M163.9,90.7c0,0,0,.1,0,.2,0,0,0,0,0,.1,0,.1,0,0,0,.2h0c0-.3,0-.4,0-.5Z"/><path class="t" d="M163.9,90.9h0s0,0,0,0Z"/><path class="t" d="M163.9,91.1h0Z"/><path class="t" d="M163.9,90.3c0,0,0,.3,0,.3,0-.2,0-.3,0-.2v-.2c0,0,0,0-.1,.1Z"/><path class="t" d="M164.1,89.9h0c0,0,0,0,0,0Z"/><path class="t" d="M164,89.1v.4c0,0,0,0,0-.1v.3c0,0,0-.3,0-.2,0,.1,0,.2,0,.3v.2h0c0-.1,0-.2,0-.2,0,0,0,0,0,0,0-.1,0-.3,0-.5s0-.2-.1-.3Z"/><path class="t" d="M164,89.1h0Z"/><path class="t" d="M164,88.6v.2s0,0,0,0c0,0,0,0,0,0,0,0,0-.3,0-.4,0-.3,0,0,0-.1v.2c0-.2,0-.3,0-.5,0,0,0,0,0,.1h0c0,0-.1,.2-.1,.4Z"/><path class="t" d="M164,89h0c0-.1,0,0,0,0Z"/><path class="t" d="M164.1,88.1s0,0,0,0c0,0,0,0,0,0Z"/><path class="t" d="M164,88.2h0c0,0,0,0,0,0Z"/><path class="t" d="M164.2,82.6s0,0,0,.2c0,0,0-.2,0-.2,0,.1,0,0,0,0,0,.2,0,.2,0,.4h0c0,.3,0,.5,0,.8,0,.2,0,.4,0,.6,0,.7,0,1.5,0,2.3h0c0,.1,0,.3,0,.3,0,0,0,0,0-.1,0,.2,0,.4,0,.6,0,0,0,0,0,0,0,0,0,.2,0,.3,0,.2,0,0,0,.2,0,0,0-.2,0-.2,0,0,0,.2,0,.2,0-.3,0-1,0-1.5h0c0-.2,0-.5,0-.8,0,0,0-.4,0-.4,0,0,0-.1,0-.2h0c0-.2,0-.1,0-.3,0,.1,0,0,0,0v-.5c0,0,0,0,0,0,0-.1,0,0,0-.1,0-.1,0,0,0,0,0-.2,0-.3,0-.4h0c0-.1,0-.3,0-.5,0-.1,0,.2,0,.3,0,0,0-.1,0-.2,0,0,0-.2,0-.4,.1,.1,.1-.2,.1-.2Z"/><path class="t" d="M164.2,83.2h0s0,0,0,0c0,0,0,0,0,0Z"/><path class="t" d="M164.2,84s0,0,0,.2c0,0,0,0,0-.2Z"/><path class="t" d="M164.1,85.3h0s0,0,0,0Z"/><path class="t" d="M164.2,83v-.2h0v.2Z"/><path class="t" d="M164.1,79.6c0,.2,0,.3,0,.5,0,.3,0,0,0,.4h0c0,.3,0,.6,0,1,0,0,0,0,0,0,0,.2,.1,.1,0,.4,0-.3,0,0-.1,0h0c0,.1,0,.4,0,.5,0,0,0,0,0,0,0,0,0,0,0,0,0-.2,0-.2,0-.3,0,0,0,0,0,0h0c0-.2,0,0,0-.2,0,0,0-.2,0-.3h0c0,0,0-.2,0-.1h0c0-.3,0-.5,0-.7,0,0,0,0,0,0,0,.1,0,.2,0,.3,0,0,0-.2,0,0,0-.2,0-.3,0-.4v-.5c0,0,0-.2,0-.3h0s0-.3,0-.3c0,.1,0,.2,0,.3,0,0,0,0,0-.1Z"/><path class="t" d="M164.2,81.7h0s0,0,0,0Z"/><path class="t" d="M164.2,78.8c-.1-.3,.2-1,0-1.5,0,.2,.1,.1,0,.4,0-.3,0,1.9,0,1.2,0,.2,.1,.1,0,.2,0,.5,.2,0,0-.3Z"/><path class="t" d="M164.2,79.3h0Z"/><path class="t" d="M164,79.2s0,0,0,0q0-.1,0,0Z"/><path class="t" d="M164.2,77.7v-.2h0c0,.1,0,.1,0,.2Z"/><path class="t" d="M164.1,76.6c0,.2,0,.4,0,.6,0,.1,0,0,.1,0,0-.1,0-.1,0-.2,0,0,0-.2,0-.3h0Z"/><path class="t" d="M163.8,75.9c-.6-2.7-2.4,.4-2,1.1,.7-2.8,1.5-2.5,2.3-.4,.2,.2-.3-1.1-.3-.7Z"/><path class="t" d="M161.7,77.1h0c0,.1,0,0,0,0Z"/><path class="t" d="M164.2,76.7h0Z"/><path class="t" d="M161.6,78s0,0,0,0h0Z"/><path class="t" d="M161.5,86.1c.2,1.9,.2-2.5,.1-2.8-.1-1.9,0-.9,0-3.2-.2-.9,0-1.1,0-2.8-.2,.4,.2,1,0,1.1,0,.5,0,1.4,0,2,0,0,0,.4,0,.2,0,1.1-.1,2.3,0,3.3,0,.4,0,2,0,.8,0,.5,0,1,0,1.5Z"/><path class="t" d="M161.6,83.6h0c0,0,0,0,0,0Z"/><path class="t" d="M161.6,83.7s0,0,0,0c0,0,0,0,0,0h0Z"/><path class="t" d="M161.5,86.7c0,0,0,.1,0,.2,0,0,0-.1,0-.2Z"/><path class="t" d="M161.6,86.9h0Z"/><path class="t" d="M161.5,91.1v.2s0,.3,0,.2c0,.1,0,.4,0,.3,0-.7,0-1.6,0-2.4h0c0-.3,0-.4,0-.8h0c0-.1,0-.3,0-.5h0c0-.2,0-.4,0-.5h0v-.2c0-.1,0,0,0,0,0-.3,0-.5,0-.7,0,0,0,0,0,0,0,.2,0,.4,0,.6h0c0,0,0,0,0,.3,0,0,0-.2,0-.2,0,.3,0,.4,0,.6,0,0,0,.1,0,.2,0,0,0,0,0-.1,0,0,0,0,0,.1,0,0,0,0,0,.2s0,0,0-.1h0c0,.3,0,.3,0,.3,0,0,0,0,0,0,0,.3,0,.6,0,1,0,0,0,0,0-.1,0,0,0,.2,0,.2,0,.2,0,.4,0,.6h0c0,0,0,.3,0,.6,0,0,0,.2,0,.3,0,0,0,0,0,0Z"/><path class="s" d="M162,92.1l.9-15.1,.6,14.8-1.5,.3Z"/><path class="s" d="M163.5,88.6h0s0,0,0,0Z"/><path class="s" d="M163.4,85.3s0,0,0,0h0Z"/><path class="s" d="M163.6,90.7s0,0,0,0c0,0,0,0,0,0,0,0,0,0,0,0,0,0,0,0,0,0,0,0,0,0,0,0,0,0,0,0,0,0Z"/><path class="s" d="M163.5,84.4s0,0,0,0h0Z"/><path class="s" d="M162.9,77.1v.2s0-.2,0-.2Z"/><path class="s" d="M163.4,83.9h0s0,0,0,0Z"/><path class="s" d="M163.3,81.7s0,0,0,0c0,0,0,0,0,0Z"/><path class="s" d="M163.2,80.8h0Z"/><path class="s" d="M162.4,88.6s0,0,0,0c0,0,0,.1,0,0Z"/><path class="s" d="M162.8,82.8h0s0,0,0,0Z"/><path class="s" d="M163,81.2s0,0,0,0h0Z"/><path class="s" d="M162.4,89.5c0-.2,0-.9-.1-.9,.2-.1,.2-1,.2-1.9,.1-.5,0-1.2,0-1.6,0-.8,.1-1.6,.2-2.2-.1,.2,0-.4,0-.5,0-.2,0-1.3,0-1.3,0-.8,0-.3,0-.8,0-.2,0-.5,0,0,0-.4,0,.9,0,0h0c0-.7,0,.1,0-.5,0,1.7,0-.3,0,.9,0-.4,0-.8,0,0,0-1.3,0-.2,0,.4,0-.3,0-1.2,0-.2,0-.4,0,0,0,0,0,0,0,.1,0,0,0,.2,0,0,0,0,0,.1,0,.1,0,.2,0,0,0,0,0,0,0,2.2,.3,2.6,.2,4.6,0-.2,0,.4,0,.2v.2c0-.3,.2,.4,0,.3,0,.1,0,.5,0,.5,0,.5,0,.5,0,1.1,0,.4,.1,1.6,0,2.1,.1,0,0,.5,0,.8,.3,1.4-.4,1.1-.8,1.4,0,0,0,0,.1,0,.5-.2,1.1,.2,.9-.8,0-1.4-.1-2.9,0-4.1,0-.9,0-1.1,0-1.8,0-.5,0-.5,0-1,.1,.3,0-.3,0-.5h0c0,0,0-1.1,0-.5,0-.2,0,0,0,0,0-.5,0-1.5,0-1.9,0-.2,0-.9,0-1.2,0-1.4-.2-1.6,0-2,0-.4,0-.3,0-.3,0-.4,0,.2,0,.2,0,.3,0-.3,0,0v-.4c0,.3,0,0,0-.2,0-.3,0,.4,0,.1,0-.1,0-.8,0-.6,0,.3,0,.2,0,0,0,.1,0,.2,0,.1,0,.4,0-.1,0,.1h0c-.1,.5,0,.7,0,1.4v-.2c0,1.7-.1,3.7-.3,5.4,0,.7,0,1.3,0,2-.1,.9,0,1.1-.1,2.1,0,.2,0,.3,0,.4,0,.5-.5,4.6,0,3.6,0-.1,0,.2,0,0,0-.1,0-.2,0-.3,0,0,0-.3,0-.1,0-.6,.4-2.3,0-1.9Zm0-3.1h0c0,.1,0,0,0,0Zm-.3,.5h0c0,0,0,0,0,0Z"/><path class="s" d="M162.8,83.1h0Z"/><path class="s" d="M163.4,90.5h0c0,0,0,0,0,0Z"/><path class="s" d="M163.1,84c0,0,0,0,0,0h0Z"/><path class="s" d="M163.3,86h0c0,0,0,0,0,0Z"/><path class="s" d="M163.3,85.9s0,0,0,0c0,0,0,0,0,0Z"/><path class="s" d="M163.6,90.8c0,0,0,0,0,0s0,0,0,0Z"/><path class="s" d="M163.5,87.6h0c0,0,0,0,0,0Z"/><path class="s" d="M163.3,86.9h0Z"/><path class="s" d="M163.5,86.6h0Z"/><path class="s" d="M163.3,81h0c0,0,0,.1,0,0Z"/><path class="s" d="M162.5,82.5h0Z"/><path class="s" d="M171,88.2c-.4,0-.8-.1-1.1-.4-.3-.2-.5-.6-.7-.9l-2.3-6.9,1.2-.6,2.9,8.7Z"/><path class="s" d="M170.9,88.3s0,0,0,0h0Z"/><path class="s" d="M170.9,88.1s0,0-.1,0c0,0,0,0,0,0s0,0,0,0c0,0,0,0,0,0,0,0,0,0,0,0s0,0,0,0c0,0,0,0,0,0Z"/><path class="s" d="M169.5,83.4s0,0,0,0h0Z"/><path class="s" d="M170.1,85.3h0s0,0,0,0Z"/><path class="s" d="M170.4,86.1h0Z"/><path class="s" d="M170.6,86.6h0s0,0,0,0Z"/><path class="s" d="M169.4,82.8s0,0,0,0h0Z"/><path class="s" d="M166.9,80.3c0,0,0,0,0,0,0,0,0,0,0,0Z"/><path class="s" d="M170.7,87.7s0,0,0,0h0Z"/><path class="s" d="M168.6,80.7h0Z"/><path class="s" d="M169.4,87h0s0,0,0,0Z"/><path class="s" d="M168.5,81.2h0c0,0,0,0,0,0Z"/><path class="s" d="M168.4,80.9s0,0,0,0h0Z"/><path class="s" d="M169.7,87.4s-.6-.5-.3-.4c-.3-.3,.2,.2,0-.3-.2-.7-.9-2.1-1.1-3.1,.2-.6-1.8-3.5-.5-3.5,.6-.6,1,2.7,1.5,2.9-.2,0,.2,.6,.2,.8,.3,.7,1,2.5,1,3.2,.2,.3,.4,1.2,.6,1.4,0-.4-.2-.5,0-.7-.1-.4-.4-1.1-.4-1.5-.1-.3-.4-.9-.6-1.6,0-.4-.4-1.2-.4-1.5-.3-.6-.9-2.2-1.3-3.6-.5,.3-1.7,.3-1.3,1.1,.7,1.5,1.1,3.7,1.7,4.9,.1,.5,.4,2.7,2.3,3,.5-.3-.3-.2-.2-.3-.5-.2-.8-.3-1-.7Zm-.7-1.6h0Zm0-.1s0,0,0,0c0,0,0,0,0,0Zm-.1,.4h0Z"/><path class="s" d="M170.1,85.4h0Z"/><path class="s" d="M168.3,83.7h0Z"/><path class="s" d="M170.3,86.5h0s0,0,0,0Z"/><path class="s" d="M169,82.6s0,0,0,0h0Z"/><path class="s" d="M169.5,83.8h0s0,0,0,0Z"/><path class="s" d="M168.5,81.2h0Z"/><path class="s" d="M169.4,83.8s0,0,0,0c0,0,0,0,0,0Z"/><path class="s" d="M170.8,87.9h0Z"/><path class="s" d="M170.8,88h0s0,0,0,0Z"/><path class="s" d="M170.6,87.5h0c0,.1,0,0,0,0Z"/><path class="s" d="M170.6,87h0c0,0,0,0,0,0,0-.1,0,0,0,0Z"/><path class="s" d="M170.6,86.7s0,0,0,0,0,0,0,0Z"/><path class="s" d="M169.9,84.7h0s0,0,0,0Z"/><path class="s" d="M169.6,84.4h0Z"/><path class="s" d="M169.8,84.1h0Z"/><path class="s" d="M168.7,80.8h0s0,0,0,0Z"/><path class="s" d="M167.9,79.5s0,0-.1,0c0,0,0,0,.1,0Z"/><path class="s" d="M167.9,83.4h0Z"/><path class="t" d="M162.2,92.5h1.3l4.7-13.1h-1.3l-4.7,13.1Z"/><path class="t" d="M162.7,91.1c0,0,0,.2,0,.2,0-.1,.1-.2,.1-.2h0c0-.2,0-.2,0,0Z"/><path class="t" d="M163.1,90.1v.3c0,0,0,0,0,0,0,.1,0,.2,0,.3,0,0,0-.2,0-.1,0,0,0,.2,0,.3h0c0,0,0,0,0,0,0,0,0,0,0,0,0,0,.1-.2,.2-.4,0-.2,0-.2,0-.3Z"/><path class="t" d="M163.2,90.2h0Z"/><path class="t" d="M163.2,89.8v.2s0,0,0,0c0,0,0,0,0,0s0-.2,0-.3c.1-.2,0,0,.1,0,0,0,0,0,0,.1,0-.1,.1-.3,.1-.4,0,0,0,0,0,0h0c0,0-.2,.2-.2,.3Z"/><path class="t" d="M163.1,90.1c0,0,0,0,0,0,0,0,0,0,0,0Z"/><path class="t" d="M163.4,89.4h0s0,0,0,0Z"/><path class="t" d="M163.3,89.5h0c0,0,0,0,0,0Z"/><path class="t" d="M164.9,85.3s0,0,0,.1v-.2c0,.1,0,0,0,0,0,.1,0,.2,0,.3h0c0,.2-.1,.4-.2,.6,0,.1-.1,.3-.1,.4-.2,.5-.4,1.1-.6,1.7h0c0,.1,0,.2,0,.2,0,0,0,0,0-.1,0,.1-.1,.3-.2,.5,0,0,0,0,0,0,0,0,0,.2-.1,.2,0,.1,0,0,0,.2,0,0,0-.1,.1-.2,0,0,0,.1,0,.1,.1-.2,.2-.7,.3-1.1h0c0-.2,.1-.4,.3-.6,0,0,.1-.3,0-.3,0,0,0,0,0-.1h0c0-.1,0,0,.1-.2,0,0,0,0,0,0l.2-.4s0,0,0,0c0,0,0,0,0,0s0,0,0,0c0-.1,0-.2,0-.3h0c0-.1,.1-.3,.2-.4,0,0,0,.1,0,.2,0,0,0,0,0-.1v-.3c0,.1,.1,0,.1-.1Z"/><path class="t" d="M164.8,85.8h0s0,0,0,0Z"/><path class="t" d="M164.9,85.3s0,0,0,0h0Z"/><path class="t" d="M164.5,86.2h0Z"/><path class="t" d="M164.6,86.4s0,0,0,.1c0,0,0,0,0-.1Z"/><path class="t" d="M164.2,87.4h0c0,0,0,0,0,0Z"/><path class="t" d="M164.9,85.6h0v0Z"/><path class="t" d="M165.6,83.1c0,.1-.1,.3-.2,.4,0,.2,0,0,0,.3h0c-.1,.2-.2,.4-.2,.7,0,0,0,0,0,0,0,.2,0,.1,0,.3,0-.2,0,0,0,0h0c0,0,0,.3-.1,.4,0,0,0,0,0,0,0,0,0,0,0,0,0,0,0-.2,0-.3,0,0,0,0,0,0h0c0-.2,0,0,0-.1,0,0,0-.1,0-.2h0s0-.1,0-.1h0c0-.2,.2-.3,.2-.5,0,0,0,0,0,0,0,0,0,.1,0,.2,0,0,0-.2,0,0,0-.1,0-.2,.2-.3,0-.1,0-.2,.1-.4,0,0,0-.1,0-.2h0c0,0,0,0,0,0v-.2c0,0,0,.2,0,.3,0-.1,0-.1,0-.2Z"/><path class="t" d="M165.2,84.7h0s0,0,0,0Z"/><path class="t" d="M165.9,82.4c0,0,0,0,0,0,0,0,0,0,0,0,0,0,0-.2,0-.2,0,0,0,0,0,0,0,0,0-.1,0-.2,0,.1,0-.1,0,0,0,0,0-.2,0-.2,0,0,0,0,0,0s0,0,0,0c0-.2,.2-.6,0-.5,0,0,0,0,0,.1,0-.1,0,0,0,0,0,0,0,.2,0,.1h0c-.1,.2-.3,.7-.4,1v0h.1s0,0,0,0c0,0,0,0,0,0,0,0,0,.2,0,.2,.1-.2,0-.2,.1-.4h0Z"/><path class="t" d="M165.8,82.9h0Z"/><path class="t" d="M165.7,82.8h0c0,0,0,0,0,0Z"/><path class="t" d="M166.2,81.7h0c0,0,0,0,0,0Z"/><path class="t" d="M166.4,80.8c0,.2,0,.3-.2,.4,0,.1,0,0,.1,0,0,0,0,0,0-.2,0,0,0-.1,0-.2,0,0,0,0,0,0Z"/><path class="t" d="M166.7,80.2c0,0,0-.1,0-.2h0c0,.1,0,0,0,0,0,0,0,0,0,0,0-.2,0-.1,.1-.4h0c0,0,0-.1,0-.1,0,0,0,0,.1,0,0,0,0,0,0-.1,.3,0,.3,0,.5,0,0,0,0,0,0,0,0,0,.1,0,.2,0h0c.1,0,.2,0,.4,0h.2c0,0,0,.1,0,.3h0c0,.4,.1-.2,.1,0,0,0,0,.1-.1,.3s0-.1,0,0c0,0,0,0,0,.2,0,0,0,.2,0,0v.3c0,0,0,.1,0,.2,0-.1,0,0,.1,0,0-.3,.1-.6,.2-.9,0,0,0-.2,0-.2h0c-.3,0,0,0,0,0s-.1,0-.1,0c-.2,0,0,0-.1,0h0c-.3,0-.6,0-1,0,0,.2-.1,.4-.2,.6h0c-.1,.2,0,.4-.2,.6h0s0,0,0,0c0,0,0,.1,0,.2h0c0,0,0,0,0,0,0,0,0,0,0,0,0,.2,.1,0,.1-.1,0-.3,.2-.2,.2-.4,0-.2,0,0,0,0Z"/><path class="t" d="M166.5,80.5s0,0,0,0c0,0,0,0,0,0Z"/><path class="t" d="M167.8,80.7h0c0,0,0,0,0,0Z"/><path class="t" d="M166.4,80.9h0Z"/><path class="t" d="M167.5,81.4s0,0,0,0h0Z"/><path class="t" d="M166.8,83.1h0s0,0,0,0Z"/><path class="t" d="M165.3,87.4c-.3,1.6,1-2.4,1.1-2.9-.1,.2,0-.2,0-.3,0,.2,0,.3,.2-.2,.2-.4,.5-2.1,.4-1.3,0-.4,.7-1.6,.4-1.6,0,.4,0,.6-.2,.7-.2,.3-.3,1.1-.5,1.4-.4,1.5-1.1,3-1.5,4.2Z"/><path class="t" d="M166,85.6h0c0,0,0,0,0,0Z"/><path class="t" d="M166,85.6s0,0,0,0c0,0,0,0,0,0Z"/><path class="t" d="M165.2,87.9s0,0,0,.1c0,0,0,0,0-.1Z"/><path class="t" d="M165.2,88h0Z"/><path class="t" d="M164.1,91.1c-.3,1.7,1-2.6,1-2.6,.5-1.4-.4,.9-.3,.5,0,.1-.3,1.1-.3,.9,0,.3-.2,1.2-.4,1.2Z"/><path class="s" d="M154.5,88c2.4,.4,3.5-7.5,4.4-8.7-2-1.5-3.7,8.1-4.4,8.7Z"/><path class="s" d="M154.4,88h0Z"/><path class="s" d="M154.6,87.8s0,0,0,0c0,0,0,0,0,.1,0,0,0,0,0,0s0,0,0,0c0,0,0,0,0,0,0,0,0,0,0,0,0,0,0,0,0,0Z"/><path class="s" d="M155.6,85h0s0,0,0,0Z"/><path class="s" d="M155.2,86.4s0,0,0,0c0,0,0,0,0,0h0Z"/><path class="s" d="M155.3,88s0,0,0,0h0Z"/><path class="s" d="M158.5,79.7s0,.1,0,0c0,0,0,0,0,0Z"/><path class="s" d="M158.6,79.7h0Z"/><path class="s" d="M157.1,80.7h0s0,0,0,0Z"/><path class="s" d="M157.3,80.2h0Z"/><path class="s" d="M156.4,86.8h0s0,0,0,0Z"/><path class="s" d="M156.9,80.6h0c0,0,0,0,0,0Z"/><path class="s" d="M157.7,83.2s0,0,0,0h0Z"/><path class="s" d="M156.9,80.3s0,0,0,0h0Z"/><path class="s" d="M156.2,87.1c.1-.1,.2-.6,.2-.6,.2-.2,.9-2.6,1.3-3.9h0c.3-1.1,.8-2.5,1.2-3.8-.4,0-1.2,0-1.5,0-.3,.9-.7,2.2-.8,2.6,0,.2-.1,.4-.1,.5-.2,.9-.8,2.6-1.2,3.8,0,.2,0,.6-.2,.7,0,.4-.3,.9-.3,1.2,.1-.4,.8-1.7,.8-2.2,.2-.1,.3-.5,.4-1,.2-.3,.4-.6,.4-1.1,0-.1,.1,0,0,0,.1-.1,0-.4,.1-.5,.3-.2,0-.3,.2-.5,0,0,0-.1,0-.1h0c0,0,0,0,0-.2,.2,0,0-.3,0,0h0c0,.2,.2-.5,.2-.5,0-.2,.2-.3,.1-.5,.2-.3,.4-1.3,.5-1.6,.8,.1,1.3-.1,.8,.8-.3,1.5-1,3.1-1.3,4.4-.5,.9,0,3-2,3.5-.1,0-.1,0-.2,0-.2,0-.2,.3,0,.2,0,0,1.9-.4,1.2-1.1Zm.6-1.8h0Zm0-.2h0Zm-.3,.2h0Z"/><path class="s" d="M155.6,85h0Z"/><path class="s" d="M157.6,83.3h0Z"/><path class="s" d="M155.1,86.2h0Z"/><path class="s" d="M156.4,82.1s0,0,0,0h0Z"/><path class="s" d="M156,83.4h0s0,0,0,0Z"/><path class="s" d="M156,83.3s0,0,0,0c0,0,0,0,0,0Z"/><path class="s" d="M154.5,87.6h0Z"/><path class="s" d="M154.5,87.6s0,0,0,0h0Z"/><path class="s" d="M154.5,87.7h0s0,0,0,0,0,0,0,0Z"/><path class="s" d="M154.7,87.1s0,0,0,0c0,0,0,0,0,0Z"/><path class="s" d="M155,86.7h0c0,0,0,0,0,0,0,0,0,0,0,0Z"/><path class="s" d="M155.1,86.4c0,0,0,0,0,0s0,0,0,0Z"/><path class="s" d="M155.8,84.4h0s0,0,0,0Z"/><path class="s" d="M155.8,83.9h0Z"/><path class="s" d="M156.1,83.8h0Z"/><path class="s" d="M157.3,80.3h0s0,0,0,0Z"/><path class="s" d="M158,79.3s0,0,0,0,0,0,0,0c0,0,0,0,0,0Z"/><path class="s" d="M157.5,82.8h0Z"/><path class="t" d="M163.1,92.5h-1.3l-4.4-13.5h1.8l4,13.5Z"/><path class="t" d="M162.7,91c0,0,0,.2,.1,.2,0-.1,0-.2,0-.2h0c0-.2,0,0,0,0Z"/><path class="t" d="M162.7,90.7s0,0,0,0c0,0,0,0,0,0Z"/><path class="t" d="M162.4,90v.3c.1,0,.1,0,0,0,0,.1,0,.1,.1,.3,0,.1,0-.2,0-.1,0,0,0,.2,.1,.2h0s0,0,0,0c0,0,0,0,0,0,0-.1,0-.3,0-.4,0-.2-.1,0-.2-.2Z"/><path class="t" d="M162.5,90h0Z"/><path class="t" d="M162.3,89.7v.2c0,0,0,0,0,0,0,0,0,0,0,0s0-.2-.1-.3c0-.2,0,0,0-.1,0,0,0,0,0,.2,0-.1,0-.3-.1-.4,0,0,0,0,0,0h0c0,0,0,.2,0,.3Z"/><path class="t" d="M162.4,90h0c0-.1,0,0,0,0Z"/><path class="t" d="M162.3,89.2s0,0,0,0c0,0,0,0,0,0Z"/><path class="t" d="M162.2,89.3h0c0,0,0,0,0,0Z"/><path class="t" d="M161,84.9c0,.6,1,3.3,1.2,4.2-.3-1.2-.9-3.4-1.2-4.2Z"/><path class="t" d="M161.2,85.4h0s0,0,0,0h0Z"/><path class="t" d="M161,84.9s0,0,0,0h0Z"/><path class="t" d="M161.4,86h0c0,.2,0,.1,0,0Z"/><path class="t" d="M161.7,87.1s0,0,0,0c0,0,0,0,0,0Z"/><path class="t" d="M161.2,85.2h0v0Z"/><path class="t" d="M160.2,82.7c.3,.9,.4,1.6,.7,2.2-.3-.9-.5-2.1-.7-2.2Z"/><path class="t" d="M160.8,84.2h0s0,0,0,0Z"/><path class="t" d="M160.1,82c0,0,0,0,0,0-.3,.2,0-.2-.1-.3,0,.3-.4-1.2-.3-.6,0-.3,.2,.4,0,0,.2,.4,.3,1.4,.4,1.1,.2,.4,.2,.2,0-.2Z"/><path class="t" d="M160.3,82.4h0Z"/><path class="t" d="M160.1,82.4h0c0,0,0,0,0,0Z"/><path class="t" d="M159.9,81.1h0s0,0,0,0Z"/><path class="t" d="M159.4,80.3c0,.1,.1,.3,.1,.4,0,0,0,0,.1,0,0,0,0,0-.1-.2,0,0,0-.1,0-.2h0Z"/><path class="t" d="M159.4,79.6c0-1-.7-.6-1.5-.7-1,0-.3,.2-.3,.9,.8,1-.7-1,.3-.8,1.2-.2,1.7,.6,1.6,1.1,.2,.8,0-.8,0-.4Z"/><path class="t" d="M157.8,80.2h0c0,0,0,0,0,0Z"/><path class="t" d="M159.6,80.4h0Z"/><path class="t" d="M158.5,82.8h0s0,0,0,0Z"/><path class="t" d="M160,87.2c.7,1.3-.3-1.5-.6-2-.4-1.4-.5-1.6-1.1-3.4,.6,1.1-.9-2.7-.3-.9,.6,1.8,1.5,4.7,2,6.3Z"/><path class="t" d="M159.4,85.3h0c0,0,0,0,0,0Z"/><path class="t" d="M159.4,85.4s0,0,0,0h0Z"/><path class="t" d="M160.2,87.7s0,0,0,.1c0,0,0,0,0-.1Z"/><path class="t" d="M160.2,87.8h0Z"/><path class="t" d="M161.3,91v.2c0,0,.2,.2,0,.2,0,0,.1,.3,.1,.2-.2-.5-.4-1.2-.6-1.8h0c-.2-.2,0-.4-.3-.6h0c0-.1-.2-.2-.2-.4,0,0,0,0,0,0,0,0,0-.2,0-.3,0,0,0,0,0,0,0,0,0-.1,0-.2,0,0,0,0,0,0-.1-.2,0-.4-.2-.5,0,0,0,0,0,0,0,.1,0,.3,.2,.4h0c.1,0,0,0,.1,.2,0,0,0-.1-.1-.1,0,.2,.1,.3,.1,.5,0,0,0,0,0,.1,0,0,0,0,0-.1,0,0,0,0,0,0,0,0,0,0,0,.2,0,0,0,0,0,0h0c0,.2,0,.2,0,.3s0,0,0,0c0,.3,.1,.5,.2,.8,0,0,0,0,0-.1,0,0,0,.1,0,.1,0,.1,.1,.3,.1,.5h0c0,0,0,.2,.1,.4,0,0,.1,0,.1,.2,0,0,0,0,0,0Z"/></g><g><path class="t" d="M223.1,147.9c-1.3,0-3.8,0-5,0l.3-18.7c.2-3.7-.7-16.1,2.8-18.6,5.3,8.8,.8,27.3,1.9,37.4Z"/><path class="t" d="M223.1,146.1c0-.2,0,0,0,0v0Z"/><path class="t" d="M223.2,145.1h0c0-.1,0,0,0,0s0,0,0,0Z"/><path class="t" d="M223.1,144.6c0,.1,0,.3,0,.4,0-.1,.1,0,0,.2,0,.2,0,.2,0,.4v-.3c0-.3,0-.5,0-.7Z"/><path class="t" d="M223.2,145.1h0c0,0,0,0,0,0Z"/><path class="t" d="M223.1,145.6h0Z"/><path class="t" d="M223.2,143.8c.1,0,0,.6,0,.7,0-.3,0-.6,.2-.5v-.4c0-.1-.2,0-.2,.2Z"/><path class="t" d="M223.5,143.1h0c0-.2,0,0,0,0Z"/><path class="t" d="M223.3,141.3v.8c.1,0,0,0,0-.2v.7c-.1,0,0-.5-.1-.4,0,.2,0,.5,0,.7v.3h0c0-.3,0-.4,0-.5,0,0,0,0,0,.2,0-.2,.1-.6,.1-1.1s-.2-.3-.2-.7Z"/><path class="t" d="M223.4,141.2h0Z"/><path class="t" d="M223.3,140.3v.4c0,0,0,0,0,.1,0,0,0,0,.1,0,.1-.2,0-.5,0-.8,0-.6,0,0,.2-.2v.4c0-.4,0-.7,0-1.1,0,0,0,.2,0,.2v-.3c-.2,.3-.3,.7-.3,1Z"/><path class="t" d="M223.3,141.1v-.2s0,.1,0,.2Z"/><path class="t" d="M223.5,139.1s0,0,0,.1c0,0,0,0,0-.1Z"/><path class="t" d="M223.3,139.4v-.3h0c0,.1,0,.3,0,.3Z"/><path class="t" d="M223.7,127.6s0,.1,0,.4c0,0,0-.3,0-.5,0,.3,0,0-.1,0,0,.3,0,.5,0,.9h0c0,.6,0,1.1,0,1.7,0,.4,0,.8,0,1.2,0,1.5,0,3.1-.1,4.8v.2c.1,0,.1,.4,0,.3,0,0,0-.2,0-.3,0,.5,0,.9,0,1.4,0,0,.1-.1,.2,0-.1,0,0,.5-.2,.6,0,.4,.1,0,0,.5,0,0,0-.4,.1-.5,0,.1,0,.4,0,.4,0-.7,0-2-.1-3.1h0c0-.5,0-1.2,0-1.8,0,0,0-.8-.1-.7,0-.1,0-.3,0-.4h0c0-.3,0-.3,0-.6,0,.2,0,0-.2-.1l.2-1.1s0,.1,0,.2c0-.2,0-.2,0-.2,0-.2,0-.2,.1-.2,0-.4-.1-.6,0-.9h0c0-.3,0-.7,0-1.1,0-.2,0,.4,.1,.6,0-.1,0-.2,0-.3,0-.2-.1-.5-.2-.8,.2,.2,.2-.3,.2-.5Z"/><path class="t" d="M223.8,128.9h0c0,0,0,0,0,0,0,0,0,0,0,0Z"/><path class="t" d="M223.7,130.5c0,0,0,.2,0,.3,0,0,0,0,0-.3Z"/><path class="t" d="M223.6,133.3h0c0,0,0-.1,0,0Z"/><path class="t" d="M223.8,128.4v-.3h0v.3Z"/><path class="t" d="M223.6,121.4c0,.4,0,.7,0,1.1,0,.7,.2,0,.2,.7h-.2c0,.6,0,1.4,0,2.1,0,0,0,.2,0,0,0,.4,.3,.2,.2,.8-.1-.5-.1,.2-.2,0h0c0,.3,0,.8,0,1,0,0,.1-.2,.1,.1,0-.1,0,0,.1,0,0-.3,0-.5,0-.7,0-.2,0,.1,0,0v-.3c0-.2,0,.2,0,0,0-.2,0-.4,0-.5h0c0-.1,0-.4,0-.3v-.2h0c0-.4,0-.9,0-1.3,0,.2,0,0,0,0,0,.3,0,.3,0,.6,0,0-.1-.4-.2,0,0-.3,0-.6,.2-.8v-1c-.1,0,0-.3,0-.7v0s0-.5-.1-.6c0,.2,0,.5,0,.7-.1-.1-.2-.1-.1-.3Z"/><path class="t" d="M223.7,125.7h0c0,0,0,0,0,0Z"/><path class="t" d="M223.7,119.5c-.3-.6,.4-2.1-.2-3.3,0,.4,.2,.2,.1,.8-.2-.6,0,4,0,2.6,0,.5,.3,.2,.2,.5,.2,1.2,.3,0,0-.7Z"/><path class="t" d="M223.7,120.7h0Z"/><path class="t" d="M223.5,120.5s0,0,0,0q0-.2,0,0Z"/><path class="t" d="M223.8,117.3v-.1s0,0,0,.1Z"/><path class="t" d="M223.6,114.9c0,.4,0,.8,0,1.2,0,.3,.2-.1,.2,0,0-.3-.1-.2-.1-.5,0,0,0-.4,0-.7h0Z"/><path class="t" d="M223,113.4c-1.4-5.7-5,.9-4.2,2.3,1.5-5.8,3.2-5.3,4.8-.8,.5,.5-.6-2.3-.6-1.5Z"/><path class="t" d="M218.5,116v.2c0,0,0,0,0-.2Z"/><path class="t" d="M223.8,115.2v-.2h0v.2Z"/><path class="t" d="M218.4,117.9s0,0,0,0h0Z"/><path class="t" d="M218.1,135c.4,4,.4-5.2,.3-6-.2-3.9,0-2,0-6.7-.3-1.9,.2-2.3,0-5.9-.5,.9,.3,2.1,0,2.3-.1,1,0,3,0,4.2,0,.1,0,.8,0,.3,.1,2.3-.3,4.9,0,6.9-.1,.9,0,4.3,0,1.7,.1,1,0,2-.2,3.1Z"/><path class="t" d="M218.3,129.7v.3h0c0-.1,0-.2,0-.3Z"/><path class="t" d="M218.2,130c0,0,0,.1,0,.2,0,0,0-.1,0-.2h0Z"/><path class="t" d="M218.2,136.2c0,.1,0,.2,0,.3,0-.1,0-.2,0-.3Z"/><path class="t" d="M218.2,136.6v-.2h0v.2Z"/><path class="t" d="M218.2,145.4v.5c0,0,0,.6,0,.5,0,.3,0,.9,.1,.7,0-1.4,0-3.4,0-5v.3c-.1-.9,.2-1.2,0-1.9h.1c0-.3-.2-.7,0-1.1h0v-.3c0-.2,0-.5,0-.7v-.3c0-.2,0,0,0,0,0-.7,0-1,0-1.4,0,0,0,.2,0,0,0,.4,0,.8,0,1.2h0c.2,.2,0,.1,0,.6,0-.1,0-.4-.1-.4-.1,.6,0,.8,0,1.2,0,.1,0,.2,0,.4,0,0,0-.2,0-.3,0,0,0,.2,.1,.3,0,.1,0,.2,0,.4s0-.2-.1-.3v.3c0,.3,0,.3-.1,.4,0,.1,0-.1,.1,0,0,.7,0,1.4,0,2,0-.2,0,0,0-.3,0,0,0,.4,0,.4,0,.4,0,.8,0,1.3h0c0,.2,0,.7,0,1.2,0,.2,.1,.3,.1,.7,0,0,0-.2,0-.1Z"/><path class="s" d="M219.3,147.7l2-31.9,1.3,31.2-3.2,.7Z"/><path class="s" d="M222.3,140.2h0s0,0,0,0Z"/><path class="s" d="M222.2,133.3s0,0,0,0h0Z"/><path class="s" d="M222.6,144.7s0,0-.1,0c0,0,0,0,0,0,0,0,0,0,0,0,0,0,0,0,0,0,0,0,0,0,0,0,0,0,0,0,0,0Z"/><path class="s" d="M222.2,131.5s0,0,0,0h0Z"/><path class="s" d="M221.1,116v.4s0-.4,0-.4Z"/><path class="s" d="M222,130.4h0c0,0,0,0,0,0Z"/><path class="s" d="M221.8,125.7s0,0,0-.1c0,0,0,0,0,.1Z"/><path class="s" d="M221.8,123.8h0Z"/><path class="s" d="M220,140.3s0,0,0,0c0,0,0,.2,0,0Z"/><path class="s" d="M220.8,128.1h0s0,0,0,0Z"/><path class="s" d="M221.2,124.6c0,0,0-.1,0-.2v.2Z"/><path class="s" d="M220,142.2c-.1-.4,0-1.9-.2-1.9,.4-.2,.4-2,.5-4.1,.3-1,0-2.5,.1-3.4,0-1.6,.3-3.3,.4-4.7-.2,.3,.2-.8,0-1,0-.3,0-2.8,.1-2.7-.1-1.7,0-.5,0-1.7,0-.3,0-1,0,0,0-.9,0,1.9,0,.1v.3c0-1.8,0,0,0-1.3,0,3.5,0-.6,0,2,0-.9,0-1.7,0-.2,0-2.6,0-.4,0,.8,0-.7,.1-2.6,0-.4,0-.7,0,0,0-.2,0,0,0,.2,0,.2,0,.3,0,0,0,0,0,.3,0,.2,0,.3,0,0,0,0,0,0,.1,4.7,.6,5.5,.5,9.6,0-.3,0,.8,0,.3v.4c0-.7,.4,.8,0,.7,0,.3,.1,1,.1,1,0,1.1-.2,1.1,0,2.3,0,.8,.2,3.3,.2,4.4,.3,0,.1,1.2,.1,1.8,.6,3.1-.8,2.3-1.8,2.9,0-.1,.2-.1,.3,0,1.1-.3,2.4,.5,1.8-1.7,.2-3-.3-6.1-.2-8.7,.2-1.9-.1-2.4,0-3.8,0-1.1,.1-1.1-.2-2,.3,.6,0-.7,0-1h0c0,.2,0-2.3,0-1.1-.1-.4,0-.2-.1,0,0-1,0-3.1-.1-4.1,0-.4,0-2-.1-2.6,0-2.9-.5-3.5-.1-4.1,0-.8,0-.7,0-.7,0-.9-.1,.4-.1,.5,0,.7,0-.6,0-.2v-.8c-.1,.6,0-.2,0-.3,0-.6-.1,.9-.2,.3,0-.3,0-1.7-.1-1.3,0,.6,0,.4,0-.2,0,.2,0,.3,0,.3,0,.9,0-.3,0,.3v-.3c-.2,1.3,0,1.7-.1,3.2v-.5c-.2,3.6-.3,7.9-.7,11.4,.2,1.5-.2,2.7,0,4.1-.3,2-.2,2.4-.3,4.5,0,.5,0,.6,0,.9,.1,1-1,9.7,0,7.5,.1-.3,0,.4,.1,0,0-.3-.1-.4,0-.6-.2,0,0-.6,0-.3,0-1.2,.8-4.8-.2-4.1Zm.1-6.5v.2s0-.4,0-.2Zm-.6,1h0c0,.1,0,0,0,0Z"/><path class="s" d="M220.8,128.7h0Z"/><path class="s" d="M222.2,144.2v.2c0,0,0-.1,0-.2Z"/><path class="s" d="M221.5,130.5c0-.1,0,0,0,0h0Z"/><path class="s" d="M221.9,134.9h0c0-.2,0,0,0,0Z"/><path class="s" d="M221.8,134.5c0,0,0,.1,0,.2,0,0,0-.1,0-.2Z"/><path class="s" d="M222.6,145c0,.2,0,0,0,0s0-.1,0,0Z"/><path class="s" d="M222.3,138.1h0c0-.1,0,0,0,0Z"/><path class="s" d="M221.9,136.7h0v0Z"/><path class="s" d="M222.3,135.9h0v0Z"/><path class="s" d="M221.8,124.2h0c0,.2,.1,.2,0,0Z"/><path class="s" d="M220.2,127.3h0Z"/><path class="s" d="M238.1,139.5c-.8,0-1.6-.3-2.3-.8-.7-.5-1.1-1.2-1.4-1.9l-4.9-14.5,2.5-1.2,6,18.4Z"/><path class="s" d="M237.9,139.6s0,0,0,0h0Z"/><path class="s" d="M238,139.1s-.2-.1-.2,0c0,.1,0,0,.2,.1s0,.1,0,.1c0,0,0,0,0,.1,0,0,0-.1,0-.2s0,0,0-.1c0,0,0,0,0,0Z"/><path class="s" d="M235,129.2s0,0,0,0h0Z"/><path class="s" d="M236.2,133.4h0c0,0,0,0,0,0Z"/><path class="s" d="M236.8,134.9h0Z"/><path class="s" d="M237.2,136.1h-.1s0,0,0,0,0,0,0,0c0,0,0,0,0,0Z"/><path class="s" d="M234.7,128.1s0,0,0,0h0Z"/><path class="s" d="M229.4,122.8c0-.1,.1,.2,.2,0,0,0-.2-.2-.2,0Z"/><path class="s" d="M237.5,138.4s0,0,0,0h0Z"/><path class="s" d="M233.1,123.6h0Z"/><path class="s" d="M234.8,136.8h0c0,0,0,.2,0,0Z"/><path class="s" d="M232.8,124.7v-.2s0,.2,0,.2Z"/><path class="s" d="M232.6,124.1s0,0,0-.1h0Z"/><path class="s" d="M235.4,137.7c-.1,0-1.2-1.1-.6-.9-.6-.7,.5,.3-.1-.7-.4-1.5-1.9-4.4-2.3-6.6,.4-1.3-3.8-7.4-1.1-7.5,1.3-1.2,2.1,5.8,3.2,6.2-.4,.1,.5,1.3,.4,1.6,.5,1.4,2,5.3,2.2,6.7,.4,.6,.9,2.5,1.2,2.9,0-.8-.3-1-.1-1.4-.3-.8-.8-2.4-.8-3.2-.3-.7-.9-1.9-1.2-3.4-.2-.8-.9-2.4-.8-3.1-.5-1.3-1.8-4.6-2.8-7.5-1,.6-3.6,.6-2.7,2.4,1.4,3.3,2.3,7.9,3.5,10.4,.3,1.1,.9,5.6,4.8,6.4,1-.7-.6-.4-.5-.7-1.1-.4-1.8-.7-2.1-1.6Zm-1.5-3.3h0Zm-.1-.3s0,.2,0,.1c0,0,0,0,0-.1Zm-.3,.8h0Z"/><path class="s" d="M236.2,133.4h0Z"/><path class="s" d="M232.5,129.8h0Z"/><path class="s" d="M236.7,135.9h0c0,0,0,0,0,0Z"/><path class="s" d="M233.9,127.7s0,0,0,0h0Z"/><path class="s" d="M234.9,130.2h0c0,0,0,0,0,0Z"/><path class="s" d="M232.8,124.7h0Z"/><path class="s" d="M234.8,130s0,0,0,.1c0,0,0,0,0-.1Z"/><path class="s" d="M237.7,138.9h0Z"/><path class="s" d="M237.7,139h0s0,0,0,0Z"/><path class="s" d="M237.4,137.9v.2s0-.2,0-.2Z"/><path class="s" d="M237.4,136.9v.2s0,0,0,0c0-.3,0,0,0-.2Z"/><path class="s" d="M237.2,136.3c0,0,0,0,0,0s0,0,0,0Z"/><path class="s" d="M235.9,132.1h0c0,0,0,0,0,0Z"/><path class="s" d="M235.2,131.4h0Z"/><path class="s" d="M235.6,130.8h0Z"/><path class="s" d="M233.2,123.7h0c0,0,.1,0,0,0Z"/><path class="s" d="M231.7,121s-.2,0-.2,0c0,0,.2,0,.2,0Z"/><path class="s" d="M231.5,129.2h0Z"/><path class="t" d="M219.6,148.5h2.8l10-27.6h-2.8l-10,27.6Z"/><path class="t" d="M220.7,145.4c.1,0-.2,.4,0,.5,0-.3,.2-.4,.3-.3v-.3c0-.2,0,0-.2,0Z"/><path class="t" d="M221.5,143.5v.7c-.1,0-.2,0-.1-.2-.1,.3,0,.3-.2,.6-.1,0,.1-.4,0-.3,0,.2-.1,.4,0,.6l-.2,.2h.2c0,0,0-.3,0-.3,0,0,0,0,0,.2,0-.2,.3-.4,.4-.8,.1-.3-.1-.4,0-.7Z"/><path class="t" d="M221.6,143.6h0Z"/><path class="t" d="M221.7,142.8v.4s0,0,0,0c0,0,0,0,0,0s.1-.4,.2-.6c.2-.4,0,0,.2,0,0,.1,0,.1-.1,.3,.2-.2,.3-.5,.3-.8,0,0,0,0,0,.2v-.2c-.2,.2-.3,.5-.4,.8Z"/><path class="t" d="M221.5,143.4c0-.1,0-.2,0-.2,0,0,0,0,0,.2Z"/><path class="t" d="M222.2,142h0c0,0,0,0,0,0Z"/><path class="t" d="M222,142.2v-.2h0c0,0,0,.2,0,.2Z"/><path class="t" d="M225.3,133.4s0,0-.2,.3v-.4c-.1,.2,0,0-.2,0,0,.3,0,.4-.2,.7h0c0,.4-.2,.9-.4,1.3-.1,.3-.2,.6-.3,.9-.4,1.1-.8,2.4-1.3,3.6v.2c0,0,0,.3-.2,.2,0,0,0-.1,0-.2-.2,.2-.2,.7-.4,1,0,0,.2,0,.1,0-.1,0-.1,.4-.3,.4-.2,.3,.1,0,0,.4,0,0,.2-.3,.2-.3,0,.1-.1,.3,0,.3,.2-.5,.4-1.6,.7-2.4h0c.1-.4,.3-.9,.6-1.3,0,0,.3-.6,0-.6,0,0,.1-.2,.1-.3h0c0-.3,.1-.2,.2-.5-.1,.1,0,0-.1-.1l.5-.8c0,0,0,0-.1,0,0-.2,0-.2,0-.2s.1-.1,.2,0c.1-.3,0-.5,.2-.7h0c0-.3,.3-.5,.4-.9,.2-.1,0,.3,0,.5,0,0,0-.2,.2-.3v-.6c.1,.3,.3-.2,.3-.3Z"/><path class="t" d="M225,134.3h0c0,0,0,0,0,0Z"/><path class="t" d="M225.3,133.4s0,0,0,0h0Z"/><path class="t" d="M224.4,135.2h0Z"/><path class="t" d="M224.7,135.6c0,0-.1,.1-.2,.2,0,0,0,0,.2-.2Z"/><path class="t" d="M223.8,137.7h0c0,.2,0,0,0,0Z"/><path class="t" d="M225.2,134v-.3h0v.3Z"/><path class="t" d="M226.7,128.6c-.2,.3-.3,.5-.3,.8-.1,.5,.2,.1,0,.6v-.2c-.4,.5-.5,1.1-.6,1.6,0,0,0,0,0,0-.1,.3,.2,.3,0,.7,0-.4-.2,0-.2,0h0c0,.2-.2,.6-.2,.8,0,0,.2-.1,0,.1,0,0,0,0,.1,0,0-.2,0-.4,.1-.6,.1-.1,0,.1,0,0v-.2c0-.1,0,.2,0,0,0-.1,0-.3,0-.4h0c0,0,.1-.3,0-.2h0c.2-.5,.4-.6,.5-1.1,0,.1,0,0,0,0-.1,.2,0,.3-.1,.5,0,0,0-.4-.2-.1,.2-.2,.2-.5,.4-.5,.1-.3,0-.5,.2-.8,0,0,.1-.2,.1-.5v0c0-.1,0,0,0,0v-.5c0,.2,0,.4-.1,.5,0-.2,0-.2,0-.4Z"/><path class="t" d="M225.8,131.9h0c0,0,0,0,0,0Z"/><path class="t" d="M227.4,127.3c0-.2,0,0,.2,0,.2-.2-.2,.2-.2,0,0-.2,0-.3,.1-.4,0,.1,.1,0,.2,0,0-.1,0-.3,.2-.4-.2,.3,0-.3-.1,0,0,0,0-.4,.1-.5,.1-.1,0,.1,0,.2s.1-.2,.2-.2c0-.3,.4-1.3,0-1.1,0,0,0,.2,0,.3,.2-.3,0,0,.1,0,0,0-.1,.4-.2,.3v-.2c-.3,.7-.6,1.6-.9,2.4v0h.3s0,0-.1,0c0,0,0,0,.1,0,0,.2-.1,.3-.1,.5,.3-.4,0-.4,.3-.8l-.2-.2Z"/><path class="t" d="M227.1,128.2h0Z"/><path class="t" d="M226.9,128h0c.1-.2,0-.1,0,0Z"/><path class="t" d="M228,125.7v-.1s0,0,0,.1Z"/><path class="t" d="M228.4,123.7c0,.3-.2,.6-.3,.9,0,.2,.2,0,.2,0,0-.2,0-.2,0-.4,0,0,0-.3,.2-.5,0,0,0,0,0,0Z"/><path class="t" d="M229,122.6c0-.2,0-.3,.1-.5v.2c.1,0,0-.2,.2-.3,.2-.2,0,0,0,0,.2-.4,0-.3,.3-.8v-.2s0-.1,.1-.1c0,0,.2,0,.3,0,0,0-.1-.1-.2-.2,.6,.1,.6,0,1,0,0,0-.1,0-.2,0,0,.1,.3,0,.5,0h0c.3,0,.5,0,.8,0h.4c0,.2,0,.3-.2,.6v.2c-.3,.6,0-.5,0,0-.2,0,0,.3-.2,.6s0-.3,0-.2c0,0,0,.2,0,.3,0,0-.1,.3-.2,.2v.6c0,.1-.1,.2-.2,.4,.1-.3,0,.1,.3-.2,.1-.7,.3-1.3,.5-2,0,0,.2-.5,0-.5h0c-.6-.1,0,0-.2,0s-.3,0-.3-.1c-.4,0,0,0-.2,0h-.2c-.6-.1-1.3,0-2.1,0-.2,.5-.3,.8-.5,1.2h.1c-.2,.4-.1,.9-.4,1.2v.2c0,0-.2,0-.2-.1,0,.1,0,.3-.1,.4v-.2c.1,0,.1,.2,0,.2,0,0,0,.1-.1,.2,0,.4,.2-.2,.3-.2,0-.5,.3-.4,.4-.9,.1-.4,0,0,0-.1Z"/><path class="t" d="M228.6,123.1s0,0,0,0c0,0,0,0,0,0Z"/><path class="t" d="M231.4,123.6h0c0,.1,0,.1,0,0Z"/><path class="t" d="M228.5,124.1h0Z"/><path class="t" d="M230.8,125s0,0,0,0h0Z"/><path class="t" d="M229.4,128.8h0c0,0,0,0,0,0Z"/><path class="t" d="M226.2,137.8c-.6,3.3,2.2-5.1,2.4-6.1-.2,.5,0-.5,0-.7,.2,.4-.1,.7,.5-.5,.3-.8,1.1-4.4,.9-2.8,0-.8,1.5-3.3,.8-3.4-.1,.9-.2,1.3-.4,1.5-.5,.6-.5,2.3-1.1,3.1-.9,3.2-2.3,6.4-3.1,8.9Z"/><path class="t" d="M227.6,133.8l-.2,.2h0c0,0,0-.1,0-.2Z"/><path class="t" d="M227.6,134s0,0,0,.1c0,0,0,0,0-.1Z"/><path class="t" d="M225.9,138.7c0,0,0,.2,0,.2,0,0,0-.2,0-.2Z"/><path class="t" d="M225.8,139h0Z"/><path class="t" d="M223.6,145.6c-.7,3.5,2-5.5,2.2-5.5,1-2.9-.9,1.9-.6,1.1,0,.3-.7,2.2-.7,1.8-.2,.7-.5,2.5-.9,2.5Z"/><path class="s" d="M203.3,138.9c5,.9,7.4-15.8,9.2-18.4-4.3-3.2-7.8,17.1-9.2,18.4Z"/><path class="s" d="M203.2,138.9h0Z"/><path class="s" d="M203.5,138.5c0,0,0-.2-.2-.2-.2,0,0,.1,0,.2,0,.1,0,0,0,0s0,0,0,.1c0,0,0,0,.1-.1,0,0,0-.1,0-.2,0,0,0,0,0,0Z"/><path class="s" d="M205.6,132.7h0c0,0,0,0,0,0Z"/><path class="s" d="M204.7,135.5s0,0,0,0c0,0,0,0,0,0h0Z"/><path class="s" d="M204.9,139s0,0,0,0h0Z"/><path class="s" d="M211.8,121.5c0,0,0,.2,.2,0,0,0,0-.2-.2,0Z"/><path class="s" d="M212,121.6h0Z"/><path class="s" d="M208.8,123.6h0c0,0,0,0,0,0Z"/><path class="s" d="M209.2,122.6h0Z"/><path class="s" d="M207.4,136.4h0c0,0,0,.2,0,0Z"/><path class="s" d="M208.3,123.4v-.2c0,0,0,.1,0,.2Z"/><path class="s" d="M210,128.8s0,0,0,0h0Z"/><path class="s" d="M208.5,122.7s0,0,0,0h0Z"/><path class="s" d="M206.9,137c.3-.3,.4-1.3,.3-1.3,.4-.5,1.9-5.6,2.8-8.2h0c.6-2.3,1.7-5.2,2.6-8-.8,.2-2.6,0-3.3,0-.7,2-1.4,4.6-1.7,5.5,0,.4-.3,.8-.3,1-.3,1.8-1.7,5.6-2.5,8,.1,.3-.2,1.2-.5,1.5,0,.9-.6,2-.6,2.5,.3-.9,1.6-3.6,1.6-4.6,.3-.3,.7-1.1,.8-2.1,.4-.6,.9-1.3,.8-2.3,.1-.3,.2,0,.2,0,.2-.3,.1-.8,.3-1.1,.5-.3,0-.6,.4-1.1-.1,0,0-.2,0-.3h0c0-.2,0,0,.2-.5,.4,0,.2-.7,.2-.2v-.2c-.2,.7,.3-.9,.4-.8,0-.4,.4-.6,.2-1.1,.4-.5,.8-2.8,1-3.4,1.8,.2,2.8-.2,1.7,1.8-.6,3.3-2.1,6.5-2.7,9.3-1,1.9,0,6.4-4.1,7.5-.3,.2-.3,0-.5,0-.4,0-.3,.7,.1,.5,0,.1,4-.9,2.6-2.3Zm1.3-3.8h0Zm.1-.3h0Zm-.7,.5h0Z"/><path class="s" d="M205.6,132.7h0Z"/><path class="s" d="M209.9,129.2h0Z"/><path class="s" d="M204.5,135.1h0Z"/><path class="s" d="M207.3,126.5c0,0,0,0,0,0h0Z"/><path class="s" d="M206.5,129.3h0c0,0,0,0,0,0Z"/><path class="s" d="M206.6,129.1s0,0,0,.1c0,0,0,0,0-.1Z"/><path class="s" d="M203.4,138.1h0Z"/><path class="s" d="M203.4,138.2s0,0,0,0h0Z"/><path class="s" d="M203.3,138.3h0c0,0,0,0,0,0s0,0,0,0Z"/><path class="s" d="M203.7,137.2c0,0-.1,.1-.1,.2,0,0,.1-.1,.1-.2Z"/><path class="s" d="M204.4,136.3v.2c0,0,0,0,0,0,.2-.2,0,0,0-.2Z"/><path class="s" d="M204.6,135.7c0,.1,0,0,0,0s0,0,0,0Z"/><path class="s" d="M206.1,131.4h0s0,0,0,0Z"/><path class="s" d="M206.1,130.4h0Z"/><path class="s" d="M206.7,130.1h0Z"/><path class="s" d="M209.2,122.8h0c0,0,0,0,0,0Z"/><path class="s" d="M210.6,120.7s0,0,0,0,0,0,0,0c0,0-.1,0-.2,0Z"/><path class="s" d="M209.5,128.1h0Z"/><path class="t" d="M221.5,148.5h-2.8l-9.2-28.5h3.7l8.4,28.5Z"/><path class="t" d="M220.6,145.3c.1,0,.1,.5,.2,.5,0-.3,0-.5,0-.4v-.3c-.2,0-.2,0-.2,.2Z"/><path class="t" d="M220.7,144.7s0,0,0,0c0,0,0,0,0,0Z"/><path class="t" d="M220.1,143.3l.3,.6c0,0,0,0-.2-.2,0,.3,.2,.3,.2,.6,0,.3-.1-.4-.2-.3,0,.2,.1,.4,.3,.5v.3h0c0-.3-.2-.3,0-.4,0,0,0,0,.1,.1,0-.3,0-.6-.2-.9-.1-.3-.3-.2-.4-.5Z"/><path class="t" d="M220.2,143.2h0Z"/><path class="t" d="M219.8,142.5l.2,.3s0,0,0,0c0,0,.1,0,.1,0s-.2-.4-.2-.6c0-.5,0,0,.1-.2,0,.1,0,.2,0,.3,0-.3-.1-.6-.3-.9,0,0,0,.1,0,.2v-.2c-.1,.3,0,.6,0,.9Z"/><path class="t" d="M220,143.2v-.2s0,0,0,.2Z"/><path class="t" d="M219.7,141.6s0,0,0,0c0,0,0,0,0,0Z"/><path class="t" d="M219.7,141.8v-.2h0c0,.1,0,.3,0,.2Z"/><path class="t" d="M217.1,132.5c-.2,1.3,2,7,2.5,8.9-.6-2.5-1.8-7.1-2.5-8.9Z"/><path class="t" d="M217.5,133.5h0c0,0,0,0,0,0h0Z"/><path class="t" d="M217.1,132.5s0,0,0,0h0Z"/><path class="t" d="M217.9,134.8v.3c0,.1,0,0,0-.3Z"/><path class="t" d="M218.4,137c0,0,0,0,0,0,0-.1,0-.2,0,0Z"/><path class="t" d="M217.4,133.1v-.3h-.2l.2,.3Z"/><path class="t" d="M215.4,127.8c.6,2,.9,3.3,1.5,4.6-.5-2-1.2-4.4-1.5-4.6Z"/><path class="t" d="M216.7,131h0c0,0,0,0,0,0Z"/><path class="t" d="M215.1,126.2c0-.2,0,0,0-.2-.5,.4,0-.5-.2-.7,0,.7-.8-2.5-.7-1.2,0-.6,.5,.9,0,.1,.3,.9,.6,2.9,.9,2.3,.4,.9,.4,.5,0-.3Z"/><path class="t" d="M215.5,127.2h0Z"/><path class="t" d="M215.1,127.1h0c0-.2,0-.1,0,0Z"/><path class="t" d="M214.7,124.5v0c0,0,0,0,0,0Z"/><path class="t" d="M213.8,122.7c.1,.3,.2,.6,.3,.9,.1,.2,.1-.1,.2,0,0-.2-.2-.1-.3-.3,0-.2-.1-.3-.2-.5h0Z"/><path class="t" d="M213.7,121.4c0-2.1-1.5-1.3-3.2-1.5-2.1-.1-.6,.5-.6,1.8,1.6,2.1-1.4-2.2,.6-1.6,2.5-.4,3.5,1.4,3.4,2.3,.4,1.6,.1-1.6-.2-.9Z"/><path class="t" d="M210.2,122.6h0c0,.1,0,.1,0,0Z"/><path class="t" d="M214.2,122.9h0Z"/><path class="t" d="M211.8,128h0c0,0,0,0,0,0Z"/><path class="t" d="M215,137.3c1.4,2.8-.7-3.1-1.2-4.2-.9-3-1-3.3-2.4-7.2,1.2,2.4-1.9-5.6-.7-2,1.2,3.9,3.2,9.9,4.3,13.4Z"/><path class="t" d="M213.6,133.2v.2c0,0,0-.1,0-.2Z"/><path class="t" d="M213.7,133.4s0,0,0,.1h0Z"/><path class="t" d="M215.3,138.3c0,0,0,.2,0,.3,0,0,0-.2,0-.3Z"/><path class="t" d="M215.4,138.5h0Z"/><path class="t" d="M217.8,145.3l.2,.3c0,0,.2,.5,0,.4,.2,.2,.2,.7,.3,.5-.4-1.1-.8-2.6-1.4-3.9v.2c-.2-.6,0-.9-.4-1.4h.1c0-.3-.4-.5-.3-.9,0,0,0-.1,0-.2-.1-.2-.2-.4-.2-.6,0,0,0,0,0,.2,0-.1-.1-.3-.2-.4,0-.2,0,0,0,0-.2-.5-.2-.8-.5-1.1,0,0,0,.2,0,0,0,.3,.2,.6,.4,.9h0c.3,0,0,.1,.2,.5,0,0-.2-.3-.2-.3,0,.5,.3,.6,.2,1,0,0,0,.2,.1,.3,0,0,0-.1,0-.2,0,0,.1,.1,.2,.2,0,.1,0,.1,.1,.3,0,.2-.1-.1-.2-.2v.2c.2,.2,.1,.2,.1,.3s0-.1,.1,0c0,.6,.2,1.1,.4,1.7,0-.2,0,0-.1-.2,0,0,.1,.3,.2,.3,.1,.3,.2,.6,.3,1h0c.2,.1,.1,.5,.3,.9,0,.1,.2,.2,.3,.5,0,0-.1-.2-.2-.2Z"/></g><g><path class="q" d="M145.2,213.1l-1.5-1.4-1.2-1.6-1.4-1.5-1.3-1.6-1.4-1.4-1.5-1.3-1.6-1.2-1.4-1.5-1.7-1.1-1.6-1.2-1.9-.8-1.8-.9-1.7-1.1-1.7-1.1-1.9-.7-1.9-.6-1.8-.9-2-.4-1.9-.6-1.9-.6-2-.2-1.9-.7-2-.2h-2l-2-.2-2-.2h-2l-2,.4h-2l-2,.2h-2l-2,.6h-2.1l-1.9,.8-2,.3-1.9,.6-1.9,.6-1.8,.8-1.8,.8-1.8,.8-1.8,.9-1.9,.7-1.6,1.2-1.8,.9-1.7,1.1-1.6,1.2-1.5,1.3-1.5,1.3-1.8,1-1.2,1.7-1.5,1.4-1.3,1.5-1.3,1.5-1.2,1.7h-.1v1.8l-.2,1.9v5.8l.2,1.9-.4,1.9,.4,1.9-.2,1.9v9.8h1.9l1.9,.2,1.9-.3,1.9-.2,1.9,.3,1.9-.2,2,.4,.8-2.1,1.3-1.6,.8-1.9,1.4-1.5,1.1-1.7,1.6-1.3,1.5-1.4,1.4-1.5,1.6-1.3,1.8-.9,1.7-1.1,1.7-1.1,1.7-1.1,2-.4,1.9-.7,1.9-.8,2-.3,2-.4h2l2-.3,2-.2h2l2,.2h2l1.9,.7,2,.3,1.9,.8,2,.4,1.8,.9,1.9,.7,1.7,1,1.7,1,1.5,1.3,1.6,1.2,1.6,1.2,1.5,1.4,1.4,1.5,1.3,1.5,1.1,1.7,1.1,1.7,.8,1.9,1,1.9h2.2l2.2-.3h8.6l.2-1.9v-1.9l-.2-1.9v-7.8l-.2-1.9v-1.9l.2-2v-2l.2-2v-2l-.4-1.9h.1Zm-22.1-14.9l.3,2.1v4.3l-.2,2.1v6.5l-1.9-.3h-3.9l-2,.3h-4l-1.9-.3v-5.8l-.2-2v-5.9l.3-2v-3.9l1.8,.4,2,.7,2,.5,2.1,.4,1.9,.9,2,.7,1.7,1.1Zm-35.5-4.7l.3,1.9v3.9l-.2,2v5.9l-.2,2v3.8l-1.9,.3h-4.2l-2.1-.3h-2.1l-2.1,.2h-2l-.2-2.1v-6.3l.3-2.1v-4.2l1.5-.8,1.9-.6,1.8-.8,1.8-.9,1.9-.5,1.9-.6,2-.3,1.8-.4Zm-33.3,19.5l1.1-1.5,1.4-1.3,1.3-1.5,1.5-1.2,1.5-1.3,1.5-1.3,1.5-1.3,1.8-.9,1.6-1.2,1.7-.9,1.7-1.2v3.9l-.3,1.9v1.9l.2,1.9-.2,1.9,.2,2h-6.2l-2.1-.3h-4.1l-2.1,.2h-2Zm36,0l-.3-1.9v-4l.2-2v-6l.2-2v-4l1.9-.5,2.1-.3h2.1l2.1,.2h4.2l2.1,.4h2.2v6.1l-.3,2v4l.2,2v4l.2,2.2h-4.3l-2.1-.2-2.1,.2-2.1-.4-2.1,.4-2.1-.2h-2Zm35.2-.2l-.3-1.9v-3.9l.2-2v-6l1.6,1.2,1.7,1,1.6,1.2,1.8,.9,1.6,1.2,1.4,1.4,1.3,1.5,1.5,1.3,1.5,1.3,1.2,1.6,1.4,1.5h-6.2l-2.1-.3h-4.1l-2.1,.2h-2Z"/><polyline class="i" points="73.6 213 73.6 210.4 73.7 207.8 73.9 205.2 73.6 202.7 73.8 200.1 73.9 197.5"/><polyline class="i" points="125.8 214 126 211.6 125.6 209.3 125.7 207 125.8 204.7 125.8 202.4 126 200.1"/><polyline class="i" points="90.3 213 90.6 210.2 90.5 207.4 90.5 204.6 90.6 201.8 90.5 199.1 90.5 196.3 90.5 193.5"/><polyline class="i" points="110.2 213 110.5 210.2 110.6 207.4 110.6 204.6 110.1 201.8 110.1 199.1 110.6 196.3 110.2 193.5"/><polyline class="g" points="61.7 239.7 62.3 237.6 63.6 235.8 64.9 234 66.3 232.4 67.8 230.8 69.3 229.2 70.9 227.7 72.7 226.4 74.4 225 76.3 224 78.3 223 80.3 222.2 82.3 221.3 84.4 220.7 86.4 219.9 88.6 219.6 90.8 219.3 93 219.1 95.2 219.2 97.4 219.1 99.5 219.6 101.7 219.6 103.8 220.2 105.9 220.7 108.1 221.2 110.2 221.8 112.3 222.6"/></g><path class="q" d="M248.8,243l-.9-.9-.7-1-.9-.9-.8-1-.9-.9-1-.8-1-.8-.9-.9-1.1-.7-1-.8-1.2-.5-1.1-.6-1.1-.7-1.1-.7-1.2-.5-1.2-.4-1.2-.5-1.3-.2-1.2-.4-1.2-.4h-1.3l-1.2-.6-1.3-.2h-2.5l-1.3-.3h-1.3l-1.3,.3h-2.5l-1.3,.2-1.2,.3h-1.3l-1.2,.5-1.3,.2-1.2,.4-1.2,.4-1.2,.5-1.2,.5-1.1,.5-1.1,.5-1.2,.4-1,.8-1.1,.6-1.1,.7-1,.8-.9,.8-.9,.8-1.1,.7-.8,1-.9,.9-.8,.9-.8,1-.7,1.1h0v3.6l-.2,1.2v1.2l.2,1.2-.3,1.2,.2,1.2v1.2l-.2,1.2v5h3.7l1.2-.2,1.2,.2h2.5l.5-1.2,.8-1,.5-1.2,.9-.9,.7-1.1,1-.8,.9-.9,.9-.9,1-.8,1.1-.6,1.1-.7,1.1-.7,1.1-.7,1.3-.2,1.2-.4,1.2-.5,1.3-.2,1.2-.3h1.3l1.3-.2h5.1l1.2,.5,1.3,.2,1.2,.5,1.3,.2,1.1,.6,1.2,.4,1.1,.6,1.1,.7,1,.8,1,.8,1,.8,.9,.9,.9,.9,.8,1,.7,1.1,.7,1.1,.5,1.2,.6,1.2h1.4l1.4-.2h5.4v-14.6l.2-1.2-.3-1.2h0Zm-13.9-9.4l.2,1.3v4l-.2,1.3v2.7l-1.2-.2h-2.5l-1.2,.2h-2.5l-1.2-.2v-7.3l-.2-1.2,.2-1.2v-2.5l1.1,.3,1.2,.4,1.3,.3,1.3,.3,1.2,.6,1.2,.5,1.1,.7Zm-22.3-3l.2,1.2v3.7l-.2,1.2v6.1l-1.3,.2h-2.7l-1.3-.2h-3.9v-3.9l-.2-1.3,.2-1.3v-2.6l1-.5,1.2-.4,1.1-.5,1.1-.6,1.2-.3,1.2-.4,1.2-.2,1.1-.2Zm-20.9,12.3l.7-.9,.9-.8,.8-.9,1-.8,.9-.8,.9-.8,.9-.8,1.1-.6,1-.7,1.1-.6,1.1-.7v2.5l-.2,1.2v3.7l.2,1.3h-3.9l-1.3-.2h-5.1Zm22.7,0l-.2-1.2v-3.8l.2-1.3v-6.3l1.2-.3,1.3-.2h1.3l1.3,.2h2.6l1.3,.2h1.4v3.8l-.2,1.3v6.3l.3,1.4h-5.3l-1.3-.2-1.3,.3h-1.3l-1.3-.2Zm22.1,0l-.2-1.2v-3.7l.2-1.2v-2.5l1,.7,1.1,.6,1,.7,1.1,.6,1,.7,.9,.9,.8,.9,.9,.8,.9,.8,.7,1,.9,.9h-3.9l-1.3-.2h-5.1Z"/><polyline class="f" points="203.8 242.9 203.8 241.3 203.9 239.6 204 238 203.9 236.4 204 234.8 204 233.2"/><polyline class="f" points="236.7 243.5 236.8 242 236.6 240.6 236.6 239.1 236.6 237.7 236.6 236.2 236.8 234.8"/><polyline class="f" points="214.4 242.9 214.5 241.1 214.5 239.4 214.5 237.6 214.5 235.9 214.5 234.1 214.4 232.4 214.5 230.6"/><polyline class="f" points="226.8 242.9 227.1 241.1 227.1 239.4 227.1 237.6 226.8 235.9 226.8 234.1 227.1 232.4 226.8 230.6"/><polyline class="c" points="196.4 259.7 196.7 258.4 197.5 257.3 198.2 256.1 199 255.1 199.9 254.1 200.7 253 201.7 252.1 202.7 251.2 203.7 250.3 204.8 249.6 206 249 207.3 248.5 208.5 247.9 209.7 247.5 211 247 212.3 246.8 213.7 246.6 215 246.5 216.3 246.6 217.7 246.6 219 246.8 220.3 246.8 221.7 247.2 223 247.5 224.3 247.7 225.6 248.1 226.9 248.4 228.1 249"/><g><path class="q" d="M177.5,141.8l-.5-.5-.4-.6-.5-.5-.5-.6-.5-.5-.6-.5-.6-.4-.5-.5-.6-.4-.6-.4-.7-.3-.7-.3-.6-.3-.6-.3-.7-.2-.7-.2-.7-.3h-.7l-.7-.2h-.7l-.7-.2-.7-.2h-3.6l-.7,.3h-.7l-.7,.2h-.7l-.7,.4h-.7l-.6,.5-.7,.2-.7,.3-.7,.3-.6,.4-.6,.4-.6,.4-.6,.4-.6,.4-.5,.5-.6,.5-.5,.5-.5,.5-.4,.6-.4,.6h-.2v8.6h4.3l.3-.6,.4-.6,.4-.6,.5-.5,.4-.6,.5-.6,.6-.4,.5-.5,.7-.3,.6-.5,.7-.2,.6-.4,.7-.2,.7-.3h.7l.7-.2,.7-.2h2.9l.7,.2,.7,.3,.7,.2,.7,.2,.6,.3,.7,.3,.6,.4,.6,.4,.6,.4,.6,.5,.5,.5,.5,.5,.4,.6,.5,.6,.3,.7,.4,.6h4.1v-8.6h0Zm-7-4.7v4.8h-4.4v-6.2l.8,.2,.8,.2,.7,.2,.7,.3,.7,.3,.7,.3Zm-11.3-1.5v6.2h-4.7v-4.6l.7-.3,.6-.3,.7-.3,.7-.2,.7-.2,.7-.3h.7Zm-10.6,6.1l.4-.6,.6-.5,.5-.5,.6-.5,.6-.5,.6-.5,.6-.5,.7-.3,.6-.4v4.3h-5.2Zm11.4,0v-6.4h.7l.7-.2h3l.8,.2v6.4h-5.3Zm11.2,0v-4.4l.6,.3,.5,.4,.6,.4,.5,.4,.6,.3,.5,.4,.5,.5,.4,.5,.5,.5,.5,.5h-5.2Z"/><polyline class="e" points="154.7 141.8 154.7 140.9 154.8 140.1 154.8 139.3 154.8 138.5 154.8 137.7 154.8 136.9"/><polyline class="e" points="171.3 142.1 171.4 141.3 171.3 140.6 171.3 139.9 171.3 139.1 171.3 138.4 171.4 137.7"/><polyline class="e" points="160.1 141.8 160.1 140.9 160.1 140 160.1 139.1 160.1 138.2 160.1 137.4 160.1 136.5 160.1 135.6"/><polyline class="e" points="166.4 141.8 166.5 140.9 166.5 140 166.5 139.1 166.3 138.2 166.3 137.4 166.5 136.5 166.4 135.6"/><polyline class="b" points="151 150.3 151.2 149.6 151.6 149 152 148.4 152.5 147.8 153 147.3 153.5 146.7 154 146.2 154.6 145.8 155.2 145.4 155.8 145 156.4 144.7 157.1 144.4 157.8 144.2 158.5 144 159.2 143.7 159.9 143.7 160.6 143.6 161.4 143.6 162.1 143.6 162.8 143.7 163.5 143.8 164.2 143.9 164.9 144.1 165.6 144.4 166.3 144.6 167 144.8"/></g></svg>